<svg id="gbg-logo-white-text" xmlns="http://www.w3.org/2000/svg" viewBox="0 0 211 70" width="211" height="70"><defs><style>.cls-1{fill:#fff}.cls-2{fill:#0076bc}.cls-3{fill:#ffd300}.cls-4{fill:#c24f3b}</style></defs><path class="cls-1" d="M30.71,69.81c-.57,0-.69-.5-1.07-.88a10,10,0,0,0-1.19-1.06,8.55,8.55,0,0,0-3.13-1.5,23.32,23.32,0,0,0-6.27-.51c-4.39,0-9.46.63-13.35-1.88a11.56,11.56,0,0,1-3.95-4.57A17,17,0,0,1,.56,52.14c0-2.26,0-4.58-.06-6.83C.5,43.55.5,41.8.44,40c.5.38,1,.82,1.63.57A1.79,1.79,0,0,0,3.19,39.1V37.22c.07-2.69.07-5.32.13-8,0-2,.06-4,.06-5.95,0-1.13-.31-1.75-1.5-2S.69,20.12.69,19.05c0-3.07.06-6.14.06-9.15C.75,8.27.94,6.58.81,5S.69,1.88,2.32,1.44C3.26,1.19,5.83,1.13,6,2.63c.13,1.19-1.44,1.44-2.32,1.63a15.21,15.21,0,0,0,6.27.88c2.63-.19,4.76-1.32,7-2.57,2-1.07,4-2.38,6.39-2.32,2.63.06,5.2.63,7.83.56S36.35-.06,39,.38c2.44.43,4.38,2.06,6.52,3.19a15.39,15.39,0,0,0,7.08,1.82A11.9,11.9,0,0,0,56,5c.31-.06,1-.18.94-.5s-.88-.44-1.19-.62c-.94-.76-.19-1.63.69-1.95a4.83,4.83,0,0,1,3.51.32c.81.5.81,1.44.81,2.25,0,1.38,0,2.82.07,4.2,0,2.26.06,4.51.06,6.77,0,1.25,0,2.51.06,3.82,0,.5.19,1.94-.25,2.26-.69.44-2.07-.19-2.44.81A4.71,4.71,0,0,0,58.15,24v2.2c0,2.69.07,5.45.07,8.14V37.1c0,1.13-.38,2.88.62,3.63a2,2,0,0,0,1.32.32c.19,0,.75-.19.88,0s0,.69,0,.87c0,.94,0,1.95-.07,2.89-.06,2.57-.06,5.14-.12,7.71a14.5,14.5,0,0,1-2.44,9.4c-2.26,2.94-5.77,4.13-9.34,4.13-2.2,0-4.45.06-6.65.06-3.44,0-7.89-.25-10.27,2.89C31.65,69.56,31.4,69.81,30.71,69.81Z"/><path class="cls-2" d="M50.88 53.58A115.28 115.28 0 0140.11 65.49c2.5-.06 5 .06 7.45 0 1.88-.06 4.14 0 5.89-.75A11.43 11.43 0 0060 56.9a27.74 27.74 0 00.5-7.2V43.8c-3.82 2.51-6.7 6.27-9.59 9.78S54.14 49.57 50.88 53.58zm-49-32.52c.69 0 1.57-1 2.13-1.57a26.9 26.9 0 002.44-2.88C8 14.54 9.27 12.28 11.09 10.4A23.15 23.15 0 0116.79 6 21.11 21.11 0 0020.05 4.2 7.74 7.74 0 0021.24 3a1.32 1.32 0 01-.31-1.26c-1.75.82-3.26 2.07-4.95 2.82a18.35 18.35 0 01-5.7 1.57c-3 .25-6.9.44-9.22-1.82C1.06 7.08 1 9.9 1 12.78 1 14.6.94 16.36.94 18.17.88 19.05.5 21.06 1.88 21.06zM47.44 5.64C44.74 4.83 42.55 3.2 40 2.13c0 .75-.63 1.19-1.32 1.38s-.68.06-1.19.5C36 5.45 34.53 6.83 33 8.21l-2.76 2c-.87.51-2.56 1.76-2.56 1.76L25.88 13h0a.44.44 0 00-.25.07 3.44 3.44 0 00-.63.44c-.5.37-1 .75-1.44 1.12-1 .82-1.88 1.76-2.82 2.64l-1.31 1.5c-.32.31-.25.25 0 .44l.56.56c-.31.32-.69.63-1 .94L14.6 24.63c-.94.94-2.76 2.88-2.76 2.88L6.89 32c-.75.76-1.56 1.44-2.38 2.13-.44.38-1 .57-1 1.13 0 1.13 0 2.26-.06 3.39a2.13 2.13 0 01-.57 1.5 1.76 1.76 0 01-1.31.56c-.26 0-.57-.06-.82-.06-.06.06 0 .25-.06.31a4.91 4.91 0 000 1.38c0 4 .06 7.9.06 11.85C2.19 53.14 3.57 52 5 51c1.13-.88 2.32-1.76 3.45-2.7.63-.5 1.19-1 1.82-1.5.25-.19 1.12-.69 1.19-1L14 43.43h.06a67.2 67.2 0 007-8.15s.31-.37 1.13-1.5L39.54 17.23c4.58-3.13 9.09-6.58 12.47-11A19.42 19.42 0 0147.44 5.64zM60.66 19.62c-.06-2.07-.12-4.14-.12-6.21-3.83 4.64-9.28 7.08-13.73 10.91-.12.06-.19.18-.31.31l-2.88 2.51c-.19.18-.32.43-.51.62l-.25.25c-.69-.19-1.38-.94-1.12-1.56 0 .06.06.06.06.12.5.94 1.56-.31.69-.63a2.68 2.68 0 00-2.63.63c-1.2 1.13-1.32 3.2-.94 4.7l.18.57L13.6 57.53c-2 2.32-4 4.64-6 7 2.51 1.06 5.21 1 7.84 1 1.44 0 2.88.06 4.26.06.94 0 2 .38 2.76-.25 1.81-1.5 3.69-3 5.45-4.57 1.06-.94 2.13-1.88 3.13-2.82.44-.44.94-.82 1.38-1.26l9.71-10.59c1.26-1.38 2.45-2.82 3.64-4.2.06-.06.06-.06.06-.12h0l.57-.44h0a.63.63 0 00.37-.12c.5-.38.94-.76 1.44-1.2.82-.75 1.57-1.5 2.32-2.31a12.09 12.09 0 001.07-1.38l.94-.63a61.94 61.94 0 015.26-3.88 4 4 0 00.06-1.51V23c0-.94.07-1.57 1.19-1.69.69-.13 1.63.19 1.7-.82A2 2 0 0160.66 19.62z"/><path class="cls-2" d="M41.8,26.51c.06.19-.06,0,0,0Z"/><path class="cls-3" d="M43.87,27l.31.69,1.19-.88.13-.82-1.13-.12-.63.75Z"/><circle class="cls-3" cx="47.44" cy="26.51" r=".63"/><circle class="cls-3" cx="48.63" cy="27.07" r=".56"/><path class="cls-3" d="M40.92,32.78l4.32-.13.51-3.13-.51.31-.37.5.06.69-.63.56L43.43,31l.12-.44h.5L44.3,30l-.56-.13-.63-.63-.43.19-.13.44-.69.06.06.44.76.38-.19.62-.88.13-.38-.31.13-.76-.88-.81-.12.25Zm6.58,0,4.39-.13.37-3.13-.44.31-.31.5V31l-.56.56L50,31.15l.12-.57h.57L51,30l-.57-.13-.69-.63-.37.19-.13.44-.81.13.12.37.76.38-.13.62-.88.13-.44-.31.13-.76-.82-.81-.18.25Zm-3.32,4.7,4.32-.07.44-3.13-.44.31-.5.57.19.62-.63.57-.94-.44.19-.57.57-.06.25-.56L47,34.59,46.37,34l-.37.18-.19.44-.75.13.12.37.75.38-.12.56-.94.19-.38-.31.13-.82-.88-.81-.12.31Z"/><ellipse class="cls-3" cx="49.63" cy="27.64" rx=".38" ry=".44"/><path class="cls-3" d="M44.05,59.53l-.56-1.25L43.93,57,42.3,56.9,42,55.46l-2,.44-1.63,1.44-1.5-.56-.13-2.26,2.14-1.63,1.19-1.38.69.5.87-1.19.19-1.88.82.07-.51-2.39-1.75-1.88-4.07-1.5-6.21-.38L32,41.61l-1.63-.37L36,36.16,37.66,36l1.07-1.38-.44-.31-1.13-.13.63-1.88.75-1.44-.06-3.13L36.66,26l.44-1.69-.19-1.13-4.76.31L31.46,22l1.38-1.51,2.69.38,2.63-.63L39,18.68l.31-1.63L38,16.48l-1.94-.75-.69-1.25,1.19-1.32L37.66,12l-1.13-.31L36.6,11l-.44-.57V9.9l-1-.88h-.57l-.31-.43-1.82-.26-.19-.68-.94-.32-.69.38-.18.81-.69-.12-.44.37-.63-.12-.38.44-.75.12-.06.5-.75.32.06.69-.38.31v.75l-.75.06-.62.57,1.19.56.94.82.12,1.44-2.07-.5.51,1.63,1.12,1.06-2,.75-.63.88-.19,3.13V28L19.8,24.13l-1.25-2.89,1.19-1.5L17.92,18l8.46-9.15L30.33,4h-.81l-4.2,3.76-9,8.59-1.63-1.63-1.19,1.06.94,1.32-.94.94-.88.44-.31.94-.81.87.44,1.88.5.88.69-.12,2.19,1.63.69.5,1.13,2.75.62.19.44,1.44.88.63,2.32,2.19L23.12,35v1.82l-1,2.13-2.07,2.25L18.11,44l-.5,1.82-2.32.44-1.5-1.19.56-2.63,1.5-2.51.5-2.7-1.06-1.44.44-.69.62-2.57-.62-3.13L14,28.14l-1.82-.32L10.09,28,8,29l-.82,1.37.44,3.51.25,1.32L9,34.28l1.07-.56.44-1.45.25-1.88.94-.87h1.75l1.26,1v2.07L14,34.78l-.37-.12-1.32-.19-1.13.37-1.25.82L7.83,37l-.62,1.38L7,40.8l.57.25-.31.81.31,1.44,1.94-.81.82-1.88V38l1.06-1.82,2.07.06-2.07,5.33.19,3.51,1.57,2.63,2.63.5,2.19-.31.69,1.25-.94,2-3.51,1.31-.37,2-.19,1.69.19,1.44,1-.19.62,2.2,2.7,1.06.06-1,1.26.69,2.82.12.12-1h1.51l.37-.62-.88-1.07.76-.63-2.07-.87-1.44.87-1.88.32-.38-1.7,1-1.88,1.76-.12,2.57-.5,1,.31,1.75-.81.94-1.19.94-.44V49.57l.63.19-.19-2.26,3.32.63,2.76,1.94.19,2.2-1.94,1.5.25,1.13-.44,1.25.44,3.07,1.13-.69.18.82.88,1.12,5.2.38-.12-1,1.13.25ZM32.65,11.84h-.31V10l1.62.32,1.13.87.32.94L34.53,12l-.5.31.19.38.87.37L34,13.47l-1.63-.18.56-.63.25-.5ZM12.85,42.05l.5-2.63,1.44-2.26-.32,2.7ZM29.52,13.41l-1.63-.12L27.76,13l.75-.68-.19-.44-1.06.25.31-.82.94-1L30.39,10l.07,1.75L29.7,12l-.44.5.76.69Z"/><path class="cls-4" d="M15.48,18.11a1.94,1.94,0,0,1,.19.63v.06l.06-.12a1.05,1.05,0,0,1,.5-.44l-.82-.32Zm-1.07,1.38a1.77,1.77,0,0,0,.63.38h.06V19.8a1.12,1.12,0,0,0-.19-.75C14.85,19.24,14.66,19.36,14.41,19.49Zm-.94.88a2.71,2.71,0,0,0,.75.37h.07v-.06A1.37,1.37,0,0,0,14,19.8.75.75,0,0,1,13.47,20.37Zm25.7.56h0a.71.71,0,0,1-.19.69,1.59,1.59,0,0,1-1,.31c-.32,0-.63-.06-.88-.06l-.44-.19a9.44,9.44,0,0,0-2.7-.5,3.14,3.14,0,0,0-2.06.69v.82A2.72,2.72,0,0,1,34,22a6.62,6.62,0,0,1,2.26.44,6.1,6.1,0,0,0,2.07.5,1.37,1.37,0,0,0,1.06-.38,1,1,0,0,0,.32-1.06A.48.48,0,0,0,39.17,20.93Zm-26.76.82A1,1,0,0,0,13,22h.07a1.14,1.14,0,0,0-.19-.76A.92.92,0,0,1,12.41,21.75Z"/><path class="cls-4" d="M33.78,23.25a1.09,1.09,0,0,0,.44.06,1.94,1.94,0,0,0,.56-.12l-.5-.63Zm1.44,0a1,1,0,0,0,.44.06,1.58,1.58,0,0,0,.5-.12l-.44-.63Zm9.46,4.39a1.8,1.8,0,0,0,.82.18h.06v-.06a1.61,1.61,0,0,0-.19-.75Zm2.07-.5h0l-.13.43h.07c.12,0,.18-.06.31-.12s.12-.06.19-.13A1,1,0,0,0,46.75,27.14Zm.94.94-.06.12h.06a1.13,1.13,0,0,0,.69-.25L48,27.64A1.77,1.77,0,0,0,47.69,28.08ZM48.88,28l-.25.38h.06a.65.65,0,0,0,.5-.13Zm-6,27.45a1.94,1.94,0,0,0-.57.12H42.3l.12.63h.07c.25-.19,1-.31,1-.38C43.43,55.52,43.24,55.4,42.93,55.4Zm-18.3,1.44a.47.47,0,0,0-.25.06c-.07.19-.13.25-.07.38s.25.12.38.12H25a.45.45,0,0,1,.32.07l.06-.07C25.13,57,24.88,56.84,24.63,56.84Zm19.67.38h0a1.05,1.05,0,0,1-.25.69,2.34,2.34,0,0,1,.57-.07,1.1,1.1,0,0,1,.5.07h.06v-.07C45.18,57.34,44.62,57.22,44.3,57.22ZM24.63,58.85a.89.89,0,0,1-.19.5l.75.25v-.32A.73.73,0,0,0,24.63,58.85ZM44.3,59h0c-.12.13-.18.19-.12.31s.19.25.38.32.12.06.18.06h.07v-.44C44.68,59.16,44.56,59,44.3,59Zm-21.87.75v.63a1.1,1.1,0,0,1,.82.5l.06.06v-.06a.8.8,0,0,0-.06-.63A1,1,0,0,0,22.43,59.72ZM18.55,60a3.54,3.54,0,0,1-.19.63,5.18,5.18,0,0,1,.75.44l.07.06v-.19A1.15,1.15,0,0,0,18.55,60Zm21.81.88.06.06a1.07,1.07,0,0,1,.38.5v.07l.12-.07h0a1,1,0,0,0-.06-.94Z"/><path class="cls-1" d="M31.08,17.67l2,.32.31-1.51-1.82.5Z"/><path d="M29.52,14.48a1,1,0,0,0-1.2,0,1,1,0,0,0,1.2,0C29.39,14.35,29.39,14.6,29.52,14.48Zm2.44,0a.94.94,0,0,0-1.19,0,.88.88,0,0,0,1.19,0C31.77,14.35,31.77,14.6,32,14.48Zm2.26,0a1,1,0,0,0-1.2,0,.89.89,0,0,0,1.2,0C34,14.35,34.09,14.66,34.22,14.48Z"/><path d="M61.35,39.86c0-.69-1.25-1.38-1.88-1.13-.94.37-.25,1.88.5,1.5.5-.25-1.13-1.25,0-1,.94.19,1.44,1.5.13,1.5-1.88,0-1.51-2.13-1.51-3.38V35.16c0-2.76-.06-5.46-.06-8.21,0-1,0-2.07-.06-3.07,0-.5-.19-1.57.31-1.82.75-.44,2.45.19,2.45-1.13v-.56c0-1.13,0-2.2-.07-3.32,0-2.32-.06-4.64-.06-7,0-1.7,0-3.39-.06-5.08,0-1.19.19-2.44-1.19-3a5.05,5.05,0,0,0-3.45-.19c-.94.32-1.88,1.2-.94,2.14a2.57,2.57,0,0,0,1.5.68,11.76,11.76,0,0,1-6.08.63,16.14,16.14,0,0,1-6.51-2.44C42.61,1.75,40.86.5,38.79.25c-2.51-.31-4.95.44-7.46.5C28.58.63,26,.06,23.37,0,21-.06,19.11,1.19,17.11,2.26S13.6,4.39,11.4,4.76a14.75,14.75,0,0,1-7-.5A1.81,1.81,0,0,0,6.14,2.82c.13-.94-.88-1.44-1.69-1.63s-2.51-.12-3.2.63A3.8,3.8,0,0,0,.69,4.57,48.94,48.94,0,0,1,.63,9.84c0,2.13,0,4.26-.07,6.45v3.83c.07,1.12.88,1.19,1.69,1.38s1,.87,1,1.56c0,.94,0,1.82-.07,2.76,0,2.76-.06,5.51-.06,8.27,0,1.69-.06,3.32-.06,5a1.43,1.43,0,0,1-1.38,1.32c-1.32,0-.81-1.57.25-1.57.57,0,.06.44-.19.57s-.56.19-.44.44c.38.75,1.45-.5,1.38-.94-.12-1.13-1.88-.5-2.19.18A1.6,1.6,0,0,0,.31,40v2.26c0,2.76.06,5.45.06,8.21A38.91,38.91,0,0,0,.75,57a11.29,11.29,0,0,0,8.71,8.71c2.63.5,5.52.25,8.21.31s5.39-.19,7.9.57A8.59,8.59,0,0,1,30.2,70a4.43,4.43,0,0,0,1.26,0,6,6,0,0,0,1.13-1.25c2.38-2.64,6.58-2.38,9.77-2.45,2.38,0,4.76-.06,7.21-.06a10.94,10.94,0,0,0,9.59-5.08,14.52,14.52,0,0,0,2.07-8c.06-2.69.06-5.32.12-8,0-1.19.06-2.38.06-3.57C61.35,41.05,61.54,40.3,61.35,39.86ZM38.16.5c1.7,0,3.39,1.07,4.77,1.88a30.35,30.35,0,0,0,4.82,2.38,15.77,15.77,0,0,0,7.65.5A7.55,7.55,0,0,0,58,4.39c.81-.5.88-2.13-.38-2.13-.69,0,.13.87.19,1,.13.56-.94.44-1.25.37-.88-.25-1.26-1.12-.25-1.56,1.25-.44,5.39.25,3.51,2.32C58.34,6,55.52,6,53.45,6a20.71,20.71,0,0,1-7.33-1.26c-2.25-.87-4.2-2.44-6.45-3.38-.57-.25-2.26-.82-2.32.25,0,.38.44.81.56.25s.38-.5.88-.38A.69.69,0,0,1,39,2.76a1.89,1.89,0,0,1-1.82.06,1.15,1.15,0,0,1-.81-1.25C36.47.81,37.54.5,38.16.5ZM24.82.75A.34.34,0,0,0,24.69.5a37.9,37.9,0,0,0,5.95.44c1.19,0,2.45-.13,3.64-.19A8.21,8.21,0,0,0,36.41.5c-.69.5-1.19,1.76-.25,2.32a34.78,34.78,0,0,0-5.7-.38,34.69,34.69,0,0,0-6.27.32c.5-.63,1-1.13.63-2C24.82.69,24.88.94,24.82.75ZM1.63,2.13c.88-.69,3-.94,3.76.13.88,1.44-2.82,1.31-1.69.37.43-.31.18-.75-.32-.56a1.65,1.65,0,0,0-.69.62C2.07,3.63,4,4.57,4.57,4.83c4.39,1.69,9.84,0,13.48-2.64,1.38-1,3.51-1.94,5.26-1.63,2.57.32-.44,3.33-1.69,2.2-.69-.69.38-1.63,1.13-1.26.31.19-.19.63.25.63s.5-.81.12-1.06c-.75-.57-2.19.31-2.82.62-.81.44-1.56.88-2.38,1.26a28.07,28.07,0,0,1-3.13,1.62,16,16,0,0,1-3.45.94,16.9,16.9,0,0,1-7.52-.12A4.65,4.65,0,0,1,1.69,4.14a1.35,1.35,0,0,1-.06-2C2.07,1.82,1.57,2.19,1.63,2.13ZM60.47,43.87c0,2.13,0,4.26-.06,6.39,0,3.07,0,6.08-1.32,9a11,11,0,0,1-4,4.64,11.86,11.86,0,0,1-6,1.57c-2.57.12-5.14.06-7.71.06a21.74,21.74,0,0,0-6,.56,7.92,7.92,0,0,0-4.51,3.07C28,65.43,23.56,65.43,19.3,65.36c-4.83-.06-10.72.69-14.54-2.94C.25,58.09,1.13,51.45,1,45.75c0-1.13,0-2.2-.06-3.32a6.35,6.35,0,0,0,0-1.51c3.51.75,2.82-4,2.88-6.08.06-1.81.06-3.63.06-5.39,0-2.31.07-4.57.07-6.89,0-1.38-1.07-1.5-2.13-1.75s-.69-1.95-.69-2.76c0-3.07.06-6.21.06-9.28V6.89a15.75,15.75,0,0,0,0-2.38C3.51,6.83,7.39,6.45,10.4,6.2a22.65,22.65,0,0,0,5.52-1.44,21.49,21.49,0,0,0,2.57-1.5,23.76,23.76,0,0,0,2.44-1.44,1.15,1.15,0,0,0,.25,1.25,3,3,0,0,0,2.57.31A40.81,40.81,0,0,1,30.46,3a55,55,0,0,1,6.45.43,6.22,6.22,0,0,0,1.94.19c.63-.12,1.38-.69,1.32-1.38,1.69.82,3.45,1.76,5,2.64a19.16,19.16,0,0,0,7.21,1.62c2.44.13,6.39.44,8.08-1.69.07,3.51.07,7,.13,10.47,0,1.31.06,2.69.06,4v.94c0,1-.56.88-1.31.94s-1.57.25-1.57,1.06a3.75,3.75,0,0,0,0,.82v3.63c0,2.13-.06,4.27-.06,6.46v6.33c.12,1.13,1.5,2.38,2.75,1.82A16.49,16.49,0,0,1,60.47,43.87Z"/><path d="M54.65,28.58a3.44,3.44,0,0,0-2.57-3.2c-.69-.12-1.7-.06-2,.63A1,1,0,0,0,51,27.39c-.19.12-.63.12-.75.25.06-.32-.5-1.13-.88-.69a.7.7,0,0,0-.38-.69c-.37-.19-.5.06-.75-.25,0,0-.87-.82-1-.44-.19-.44-.44-1.32-1.13-1.07-.44.19-.5.76-.94.94-1.19-.06-2.19.88-1.56,1.95-.63.25-.82.06-1.38-.19a1.16,1.16,0,0,0,1-1.19c-.13-.82-1.13-.94-1.76-.88a4,4,0,0,0-3.13,2.13A5.26,5.26,0,0,1,37,25.69c-.13-.25.75-2.25.18-2.38a4,4,0,0,0,2.45-.44,1.42,1.42,0,0,0,.25-2.13c-.25-.25-.94-.69-1.32-.37-.19.19-.06.56-.12.75-.38.94-2.07-.13-2.7-.06,1.38-.19,3-.5,3.26-2.07a7.63,7.63,0,0,1,.25-1.13c.06-.25.25-.5.31-.69.32-.75-1.69-1-2.19-1.13s-1.63-.62-1.63-1.31-.06-.69.44-1.07c.31-.25.63-.63.94-.88.13-.12.88-.5.88-.56.12-.44-1.07-1.19-1.44-.75a.59.59,0,0,0-.32-.94.85.85,0,0,0-.44-1.13c-.37-.13-.18-.31-.56-.56a.58.58,0,0,0-.63-.07A.73.73,0,0,0,34,8.21c-.5,0-.18.19-.62-.06-.19-.07-.63-.19-.69.06a1.08,1.08,0,0,0-.75-1.07c-.32-.12-.38-.06-.32-.43h.63c.06-.44-.19-.38-.56-.32-.13,0-.07-.37-.07-.5h-.44v.44h-.62c-.06.63.56.12.56.38.06.43,0,.25-.37.43s-.76.63-.57,1.07a.63.63,0,0,0-1,.25.65.65,0,0,0-1.07.38c-.31-.13-1.19.12-.94.62-.5-.06-1.06.57-.69,1a.64.64,0,0,0-.37.94,1.26,1.26,0,0,0-1.44.75c0,.12-.13.19-.07.25a8.63,8.63,0,0,0,.94.31c.13.06,1.32,1,1.32,1v.82c-.31.06-.81-.13-1.38-.13s-.69.25-.56.88a2.75,2.75,0,0,0,1.25,1.94A2.46,2.46,0,0,0,24,18.86a4.9,4.9,0,0,0-.06,1.63A5.63,5.63,0,0,0,23.62,22c0,.69.07.18.07.31.12.38,0,.56-.07.94a4.6,4.6,0,0,0,0,1.57,4,4,0,0,0,0,1.19,3,3,0,0,1,.19,1.31,33.1,33.1,0,0,1-2.75-2.57,8,8,0,0,1-1.2-1.31,18.08,18.08,0,0,1-.68-1.69c-.07-.19-.38-.76-.26-.94.32-.32.63-.57.94-.88s-.12-.57-.43-.82-.76-.87-1.2-1c2.32-2.76,4.89-5.39,7.34-8.08.94-1,1.81-2.07,2.69-3.14.63-.75,1.19-1.44,1.76-2.25.12-.19.81-.94.5-1.13s-1.19.38-1.51.56c-.75.57-1.44,1.26-2.06,1.82s-1.38,1.19-2,1.82c-1.5,1.44-2.94,3.07-4.57,4.45-.69.56-1.38,1.25-2.07,1.88-.44.44-.88.87-1.32,1.25-.19.19-.63.5-.69.69-.31-.31-.62-.75-.94-1.07s-.56-.94-.88-.62c-.5.44-1,.94-1.44,1.38.32.37.69.69,1.07,1.06a1.09,1.09,0,0,0-.82.44,5,5,0,0,0-.25.69c-.62,0-1.56.94-1,1.5a.84.84,0,0,0-.94.94,3.56,3.56,0,0,0,.25.76c.19.31.31.25.19.56-.31.63.94,2.13,1.32,1.5a5.91,5.91,0,0,0,2,1.57c.25.13.75.19.88.44.37.63.44,1.44.81,2.13.32.5.32,1.32.69,1.76a3.84,3.84,0,0,0,.32-.69,3.85,3.85,0,0,0,1.25,2.31.62.62,0,0,0,.06-.56,15.15,15.15,0,0,0,.94,1.57c.44.69.57.81.75.06,1.26,1.13,2.89,3.2,2.32,4.95-.69,1.94-2.38,3.32-3.63,4.89a8.27,8.27,0,0,0-1.69,2.88c-.19.63-.07,1-.69,1.32a2.13,2.13,0,0,1-1.95.06c-1.69-1.25-.31-3.2.57-4.57,1.13-1.76,1.81-3.83.25-5.58.81-1.69,1.44-4.08.56-5.83-.88-2-3.13-2.57-5.2-2.32-1.69.25-3.45.69-3.95,2.51A5.45,5.45,0,0,0,7,32a6.32,6.32,0,0,1,.13,1.13c0,.31-.13.94.31.82a1.48,1.48,0,0,0,.5,1.63c.38-1.2,1.76-1.2,2.51-2.07.94-1.07.44-2.07.82-3.32s2.44-.63,3.07.18c.81,1.07.18,2.82-.19,4a3.62,3.62,0,0,0-3.39.32L8.08,36.6a3.34,3.34,0,0,0-1.31,2.88,4.26,4.26,0,0,0-.07.94c0,.63-.12.94.57.63a2.53,2.53,0,0,0-.38,2c.13-.06.44-.25.44-.37,0,.37-.25.75-.06,1.12.75-.62,1.88-.56,2.57-1.31a3.34,3.34,0,0,0,.87-2.38,9,9,0,0,1,.13-2.89,1.75,1.75,0,0,1,2.26-.87c-.63,1.69-1.57,3.13-1.88,5-.38,2.32-.19,5,1.94,6.46a4.79,4.79,0,0,0,3.57.62,4.33,4.33,0,0,0,.88-.25c.5-.19.5.31.56.75a2.19,2.19,0,0,1-.5,1.76c-.81.94-2.19.62-3.2,1.13a2.51,2.51,0,0,0-1,2.69c.06-.06.19-.06.25-.12a4.72,4.72,0,0,0-.25,1c0,.12-.31,1.19.13.75a3.59,3.59,0,0,0,.19,2.19l1-.81a2.53,2.53,0,0,0,1.13,2.63c1.12.63,2.57.57,3.69,1.25v-.94c1.38.32,3.2-.43,4,1.13.13-.56.44-1.5-.12-1.88a1.32,1.32,0,0,1,1.19-.19c.44.13.88.51.94-.18.06-1-1-1.13-1.57-1.76.57-.31,1.32,0,1.88.19a1.41,1.41,0,0,0-1-1.32,3.69,3.69,0,0,0-.81-.06,3.49,3.49,0,0,0-1.07-.5,1.89,1.89,0,0,0-1.82.38,2.66,2.66,0,0,1-1.63.75c-1.5,0-.94-2.57.07-3,1.44-.56,3.26.38,4.57-.56,0,.12.06.19.06.31.94-.25,2.89-.69,3.07-1.88.13.06.19.19.26.38a2.8,2.8,0,0,0,1-2.32c.06.06.19.12.25.19a3.45,3.45,0,0,0,.19-2.38c1.88.25,5.26.68,5.76,3.07.25,1.25-1.13,1.38-1.75,2.19a2.33,2.33,0,0,0-.5,1.57c.06.25.06.56.37.25a3.1,3.1,0,0,0-.56,1.75c0,.13-.06,1.07.31.5a9,9,0,0,1,.19,2.57,2.55,2.55,0,0,0,1.44-.81c-.94,1.56,1.82,1.69,2.7,1.69a13.4,13.4,0,0,1,2.75.19c.69.12,1,.88,1.13,1.5.38-.69.82-1.69.25-2.38a3.82,3.82,0,0,0,2.07.06c.25-.12.44-.37.75-.37a1.34,1.34,0,0,1,1,.62c.38-.18.32-.94.25-1.25a1,1,0,0,0-.37-.56c-.19-.19-.75-.07-.82-.32.69-.31,1.19.13,1.63.57a1.76,1.76,0,0,0-.5-1.95c-.75-.43-1.88-.18-2.69-.31a2,2,0,0,1,1.69-.25c.25-.5-.25-1.13-.75-1.32-.75-.25-1.26.19-2,.19a2.84,2.84,0,0,0-1.81.69,5.25,5.25,0,0,0-.82.88c-.25.19-.31.12-.69.12s-.94.07-1.06-.5a2.89,2.89,0,0,1,.19-1.94A4.52,4.52,0,0,1,39,53.08c.44-.31,1.19-.81,1.31-1.32.07.19.13.51.32.51s.62-.32.81-.57a2.86,2.86,0,0,0,.69-1.13c.19-.5.06-1.06.25-1.5.06.12.44.19.57.31a4.31,4.31,0,0,0-.69-3.44,6.46,6.46,0,0,0-3-2.45c-2.51-1.06-5.64-1.13-8.34-1.06.51-.38,1.13-.63,1.7-1a1.38,1.38,0,0,0-1.07-.69c.38-.31.75-.56,1.13-.87a9.52,9.52,0,0,1,.81-.63c.19-.13.69-.75.94-.75.44,0,1.51-1.32,1.76-1.69a2.28,2.28,0,0,0,.5-.57A2.44,2.44,0,0,0,38,36a1.6,1.6,0,0,0,.81-.87c.13-.25.13-.63.31-.82s1.13,1.19,1.26,1.32a37.94,37.94,0,0,0,3.88,4.45c.63.56,1.26,1.19,1.88,1.69.32.25.25.31.57.06s.81-.69,1.19-1.06a37.5,37.5,0,0,0,3.38-3.51,19.2,19.2,0,0,0,2.51-4A10.63,10.63,0,0,0,54.65,28.58Zm-5-1.26c.31,0,.44.63.06.63S49.26,27.32,49.63,27.32Zm-.5.88a1,1,0,0,1-.44.13C48.82,28.08,48.94,28,49.13,28.2Zm-.63-1.5c.44,0,.69.69.13.69C48.25,27.45,48.13,26.7,48.5,26.7Zm-.18,1.19a2.75,2.75,0,0,1-.63.25C47.88,27.82,48.06,27.51,48.32,27.89Zm-1.63-.57a.6.6,0,0,0,.06-.18.34.34,0,0,1,.31.18h0l-.37.19Zm1.19-.62c-.25.37-.94.18-.88-.25s1.25-.32.88.25C47.81,26.82,47.94,26.63,47.88,26.7Zm-3,.62a.56.56,0,0,0,.31-.25,2.17,2.17,0,0,1,.19.63,2.81,2.81,0,0,1-.75-.13ZM44.81,26c.06,0,.12.06.25.06.75.56-.82,1-.76,1.38-.06-.25-.31-.5-.31-.82S44.43,26,44.81,26Zm-8.15-4.33a4.6,4.6,0,0,0,1.63.19,1.12,1.12,0,0,0,.94-.44c.06-.06.19-.5,0-.56.81.06.56,1.31.06,1.63-.75.5-2,.12-2.76-.19a9,9,0,0,0-2.25-.5,2.84,2.84,0,0,0-2.32.75C31.65,20.49,35.53,21.43,36.66,21.68Zm-4.07-.62c.62-.63,1.56-.38,2.38-.19a4.09,4.09,0,0,0-2.57.37Zm.62,2.19a1.36,1.36,0,0,1-1-.13A2.66,2.66,0,0,1,34,22.5c-.25.19-.43.69-.75.75C33.09,23.25,33.28,23.19,33.21,23.25Zm1.13-.69c.13.19.31.38.44.56a4.4,4.4,0,0,1-1,.13A5.65,5.65,0,0,0,34.34,22.56Zm.44-.06c.19,0,.38.06.56.06a1,1,0,0,1-.25.31A1.69,1.69,0,0,1,34.78,22.5Zm1,.19c.13.18.25.31.38.5a1.91,1.91,0,0,1-.82.06A1.69,1.69,0,0,1,35.78,22.69ZM32.21,8.15h-.56v-.5C31.9,7.65,32.08,7.9,32.21,8.15Zm-.06.31c-.13.75-1.38.81-1.51.06C31.14,8.52,31.65,8.46,32.15,8.46Zm-.94-.81c0,.56,0,.5-.57.56C30.71,7.9,30.89,7.65,31.21,7.65Zm-4.7,3.5c.12-.5.56-.12.69-.43-.44-.07-.38-.76.06-.82.25-.06.44.19.56,0s-.25-.31-.06-.56.38-.13.56,0c.38.31.07.12.19-.19a.47.47,0,0,1,.69-.25c.13.06.19.31.25.31s.13-.94.75-.62.69,1,1.57.87c.57-.12.82-.94,1.32-.94s.19.44.44.5.06-.18.12-.18a.52.52,0,0,1,.88.25c.12.44-.13.31.19.12s1,.32.62.63c.19.25.25-.25.63,0,.69.37-.06.63-.06.88s.37,0,.5.12c.5.44-.25,1-.5,1.32a2.81,2.81,0,0,0-3-2.32c-.5,0-.56-.06-.56.44a10.62,10.62,0,0,0,.06,1.38c-.19-.69-1.32-.88-1.44-.07V10.47c0-.69.12-.76-.63-.76a2.78,2.78,0,0,0-3,2.32c-.5-.12-.94-.5-.81-.88C26.57,11,26.44,11.34,26.51,11.15Zm7.2,1c-.06.44.44.75.82.94a4.46,4.46,0,0,1-1.82,0c.44-.44,1-.82.38-1.32-.07-.06-.63-.25-.63-.19V10.21c0-.12.75-.06.82,0A1.93,1.93,0,0,1,35,11.78a2.63,2.63,0,0,0-1.26.38C33.71,12.22,34,12,33.71,12.16Zm-4.63.12c-.32.19.37.75.56.82a2.64,2.64,0,0,1-1.69,0c1-.44.75-1.69-.31-1.19a1.94,1.94,0,0,1,.81-1.38c.56-.38,1.13-.19,1.69-.32,0,.38.06.76.06,1.13S29.39,11.91,29.08,12.28Zm-2.13,1c-.07-.19,0-.38-.19-.51-.32.07-.32.25-.57,0s-.62-.62-.87-.56c.5-.69,1.12-.06,1.44.31s1-.94,1.5-.25a.68.68,0,0,1-.56.44,1.33,1.33,0,0,0-.5.13.51.51,0,0,0,.37.62c.75.19,3.32.57,3.2-.81-.25,0-.44.19-.75.19s-.69-.44-.32-.63,1.07.5,1.38.19c-.19-.25-.12-1.19.38-.75.31.25.12.62-.06.81.56.19,1-.81,1.56-.06a.63.63,0,0,1-.44.44c-.25.12-.56-.19-.75-.13-.19,1.38,3.64,1.51,3.64.31-.07-.18-1.45-.12-1.26-.62.38-.44,1.26,0,1.38.5.31-.44,1.19-1.32,1.76-.69a2.27,2.27,0,0,0-.76.56c-.12.13-.12.44-.31.44s-.38-.19-.5.13c-.44.94-1.82.62-2.7.62H29.45c-.56-.18-2.19.13-2.5-.68C26.88,13.22,27.13,13.72,27,13.29Zm.43.81h7.84a2.87,2.87,0,0,0-.5.44c.18.12.37.31.56.44-2.63,0-5.2-.07-7.83-.07C27.7,14.54,27.89,14.29,27.38,14.1ZM25.82,16c-.13-.31-.32-.69-.44-1,.69.19,1.44.44,2.13.63.38.12.38-.44.63-.44h.62c1.82,0,3.7.06,5.52.06.62,0,1.06-.12,1.56.44a3.46,3.46,0,0,0,1.88,1c.57.19,1.82.32,1,1.07-.25.25-.82-.13-1,.06-.31.69.63.5.88.5.13,2.76-3.51,1.94-5.14,1.63A2.32,2.32,0,0,0,31,22.69a1.44,1.44,0,0,0,1.88,1,5,5,0,0,1,2.38-.06c.5.06,1.13-.51,1.38,0a1.79,1.79,0,0,1-.19,1.25c-.31.31-.69.19-1.06.31.31-.19.62-.81.06-.81-.69.5-1.19,1-2.07.81.13-.06.31-.25.25-.44,0-.56-.56.07-.69.13a1.86,1.86,0,0,1-1.31.25c-.44-.06-.63-.31-1-.5C30.58,25.88,32,26,33,25.69c.13,0,.32.19.44.19a2.28,2.28,0,0,0,1.13,0c.31-.12.31-.19.69-.12a1.88,1.88,0,0,0,1,0c-.06,1.06,1.19,1.5,1.63,2.32A2.66,2.66,0,0,1,38,29.64a1.61,1.61,0,0,1-.19.75c-.13.38-.5.63-.63.88-.12-.25.13-.56-.06-.81a2.6,2.6,0,0,1-.81,1c.62-1.57-.76-2.57-.76-4.07-1,.12,0,2.13.07,2.5A1.59,1.59,0,0,1,34.47,32c.06-.12.43-.75.18-.87a1.76,1.76,0,0,1-1.25.94,2.48,2.48,0,0,0,.19-2.2,3.08,3.08,0,0,1-.13-1.5c.07-.44.38-.44.5-.75-.43-.57-1,.44-1.06.75a6.65,6.65,0,0,0-.06,1.06c0,.44.06.94.06,1.38a1.89,1.89,0,0,1-.19.82c-.12.19-.56.25-.69.37a2.2,2.2,0,0,0,.13-.87c-.25.12-.44.43-.63.62s-.5.19-.88.32c.76-.63.63-1.63.57-2.51a2.16,2.16,0,0,1,.19-1.44c.18-.38.5-.82-.19-.44-1.95,1,.56,3.82-1.95,4.32a1.42,1.42,0,0,0,.19-.75c-.19.06-.37.31-.56.44a1.25,1.25,0,0,1-.82.13,1.83,1.83,0,0,0,1-2,5.46,5.46,0,0,1,0-1.07,7.9,7.9,0,0,1,.5-1.19c-1.26,0-1.19,1.57-1.26,2.39C28.2,31,27.7,31.4,26.7,31.52c.06-.12.31-.31.25-.5A1.6,1.6,0,0,1,25.63,31c1.07,0,1.19-1.44,1.07-2.2a2.43,2.43,0,0,1,.37-1.25c-.06.13.5-.37.19-.12.25-.25.06-.51-.25-.38-.63.25-.75,1.32-.94,1.82a2.53,2.53,0,0,1-.57,1.38,1.72,1.72,0,0,1-1.81.12c1.06-.06,1.38-1.82,1.25-2.63-.63.56-.44,2.51-1.69,2.26a.91.91,0,0,1-.5-.44c.94.25,1.5-1.07,1.25-1.82a1.4,1.4,0,0,1,.75-1.63c.94-.44,2.26-.19,2.95-1.13a3.6,3.6,0,0,0,.62-2.19c.07-1.76.07-3.51,0-5.33.57.25,1.2.06,1.76.19s1.06.63,1.69.75S34.72,18.17,34,17c.56,0,1.81-.06,1.38-.87-.32-.44-1.26-.88-1.7-.38.44.25.88.12,1.19.63-.81.5-1.62-.19-2.44-.13a4.54,4.54,0,0,1-2.69.94,2.81,2.81,0,0,1-1.26-.25c-.44-.19-.5-.5-.94-.13C27.2,17.36,26.32,16.73,25.82,16Zm7,18.68a2.2,2.2,0,0,1-1.57,2.88c.31-.19.38-.56.56-.81,0,0,0-.07-.06-.07a1.39,1.39,0,0,1-1.31.69,3,3,0,0,0,1-2.75,6.86,6.86,0,0,1,.06-1.57c.06-.5.13-.44.56-.31a.88.88,0,0,0,.88-.19A4.7,4.7,0,0,0,32.84,34.72ZM31,32.46c-.82,1.63.62,4.2-1.95,4.58.25-.19.69-.44.69-.82a1.87,1.87,0,0,1-1.44.57c.38-.19.75-.25.88-.76a6.78,6.78,0,0,0,0-2.5,4,4,0,0,1,.06-1.19c.06-.07.38,0,.5,0,.44-.07.5-.19.88,0C30.71,32.4,30.83,32.4,31,32.46Zm-4.58,3.39a1.37,1.37,0,0,1-.69-.25c1.95.31,1.38-2.7,1.26-3.7a1.72,1.72,0,0,1,1.12.19c.07.06.51.12.51.18a6.2,6.2,0,0,1-.07,1c0,.75.32,1.81-.06,2.5a1.52,1.52,0,0,1-1.82.38,1.43,1.43,0,0,0,.63-.56A2.38,2.38,0,0,1,26.38,35.85Zm-1-1a.53.53,0,0,0,.31-.62,6,6,0,0,0-.69.25c.57-.32.38-.88.25-1.38a4.13,4.13,0,0,1-.12-1.94,1.29,1.29,0,0,0,.75.5c.25.06.44-.07.44.25a2.46,2.46,0,0,0,.06.69,4.1,4.1,0,0,1,0,1.94A.9.9,0,0,1,25.38,34.84Zm.81-14c-.69.12-1.5.31-1.75,1-.25-.82.5-1.63,1.19-1.94a13,13,0,0,1,1.63-.57,1.94,1.94,0,0,0,.75-.25c-.19.44-.56.57-1,.75.19.13.88.19,1.06-.06a2.65,2.65,0,0,1-1.88,1.07C25.94,20.87,26.88,20.68,26.19,20.81Zm6.65-3.51a.4.4,0,0,0,.12.5,2.3,2.3,0,0,1-1.31-.32c.37-.25,1.19-1,1.56-.75A.53.53,0,0,0,32.84,17.3Zm-7.9,1.31c.69-1.06,2.07-.37,3-1-.19.5-.82.31-1.13.69a4.36,4.36,0,0,0,1.25,0c-.87.88-2.82.25-3.44,1.5a1,1,0,0,1,.31-1.19C25.32,18,24.75,18.8,24.94,18.61Zm-.31,3.7a2.21,2.21,0,0,1,1.5-1.07,4.24,4.24,0,0,0,1.76-.37c-.19.5-.88.5-1.13.94a2.44,2.44,0,0,0,1.31-.06c-.37.87-1.25,1-2.06,1.12a2.57,2.57,0,0,0-1.13.44c-.13.13-.38.44-.57.44A2,2,0,0,1,24.63,22.31Zm-.25,2.51c.56-1.63,2.38-1.19,3.51-2.07-.07.75-.88.69-1.32,1.13a1.48,1.48,0,0,0,1.13,0c.06,1.5-2.82,1-3.45,1.88A2.19,2.19,0,0,1,24.38,24.82Zm-8.9-7.59a17.24,17.24,0,0,1-1.69-1.5c.37-.31.75-1,1.12-.56.5.62.94,1.19,1.51,1.81,2.13-2.32,4.45-4.38,6.64-6.58l3.2-3c.56-.5,1.19-1.06,1.75-1.5S29.33,4.39,30,4.2c-2.19,2.76-4.76,5.39-7.14,8-1.13,1.25-2.26,2.44-3.45,3.7-.31.31-.94,1.38-1.31,1.38a2.49,2.49,0,0,0-.69.81,6.5,6.5,0,0,0,1,.88c.25.25.56.69.88.75-.19.13-.63.44-.69.69A6.15,6.15,0,0,0,15.48,17.23Zm-1.26,3.95c-.18.25-.43.44-.62.69-.07-.25,0-.88-.19-1.06A3.34,3.34,0,0,0,14.22,21.18ZM13,21.31a1,1,0,0,1,.06.62,3.62,3.62,0,0,1-.62-.18,1,1,0,0,0,.56-.44C13,21.43,12.91,21.43,13,21.31Zm.88-3.57c.25-.82,1,.43.88.94-.19.87-1.07-.38-.88-.94C13.91,17.55,13.72,18.11,13.85,17.74ZM14,19.93a1.54,1.54,0,0,1,.18.75,1.56,1.56,0,0,1-.75-.31c.32-.07.5-.19.57-.44C14.16,20.18,14,20.24,14,19.93Zm.75.81a2.18,2.18,0,0,1-.06-.62c.18.06.37.12.5.18s.18-.94.25-1V20c.06.38-.38.5-.69.75C14.79,20.56,15,20.56,14.79,20.74Zm.31-1c-.25-.06-.44-.19-.63-.25.07,0,.51-.25.51-.38a2,2,0,0,1,.12.63C14.91,19.68,15.1,19.62,15.1,19.74Zm.57-1a1.32,1.32,0,0,0-.19-.69c.25.06.44.19.69.25a.59.59,0,0,0-.5.44C15.67,18.49,15.73,18.49,15.67,18.74ZM13,18.61c.63,0,1.07,1.13.32,1.38S12.09,18.8,13,18.61C13.35,18.61,12.72,18.68,13,18.61Zm-1.25,2.26c-.25-.63.19-1.19.69-.5S12.16,21.62,11.78,20.87Zm.75,2c-.19-.12-.81-.62-.31-.75.12-.06.56.19.63.25S12.66,22.75,12.53,22.87ZM12.34,35.6C10.4,35.6,10,37.35,10,38.92a4.89,4.89,0,0,1-.38,2.69,3.44,3.44,0,0,1-.75.88c-.25.19-1.13.19-1.19.37.44-.62,1.63-1.25,1.06-2.19a3.57,3.57,0,0,1-1.31,1.57c-.07-.88,2.06-2.82.87-3.57-.12.31-.18.69-.31,1s-.56.63-.69.94a4.81,4.81,0,0,1,.13-2.32c.25-.88,1-1.25,1.69-1.69a25.1,25.1,0,0,1,2.63-1.76,3.23,3.23,0,0,1,2,.25,3.85,3.85,0,0,0-.38.76A3.2,3.2,0,0,0,12.34,35.6Zm6.08,24.87c.07-.06.25-.37.19-.5.44.25.31.63.57.94-.26-.12-.51-.31-.76-.44C18.55,60.29,18.74,60.6,18.42,60.47Zm4.58,0c-.5-.37-.5-.12-.57-.75.63.07.69.57.88,1.07C23.25,60.66,23.12,60.6,23,60.47Zm1.44-1.19a1,1,0,0,0,.25-.43.61.61,0,0,1,.5.62Zm.94-1.94c-.25-.25-.82.13-1-.19s.06-.31.25-.31a1.58,1.58,0,0,1,.75.5C25.32,57.28,25.13,57,25.38,57.34Zm3.07-8ZM40.86,61.41a.68.68,0,0,0-.44-.56,2.39,2.39,0,0,1,.44-.31,1.44,1.44,0,0,1,0,.87C40.8,61.23,40.92,61.16,40.86,61.41Zm3.7-1.88c-.26-.12-.51-.25-.26-.5a.63.63,0,0,1,.44.63c-.06-.06-.12-.13-.18-.13S44.62,59.53,44.56,59.53Zm.62-1.69a2.11,2.11,0,0,0-1.06,0,.48.48,0,0,0,.12-.62c.38.06.88.18.94.62C45.06,57.78,45.12,57.34,45.18,57.84Zm-2.25-2.38c.18,0,.43.06.5.25a2,2,0,0,0-.94.32C42.42,55.59,42.3,55.46,42.93,55.46ZM31.58,43.37c4.08,0,9.78.18,10.72,5.2-.56-.44-1.07-.94-1.63-1.32-.06.57.56,1.51.75,2.07a2.24,2.24,0,0,1-.56,2.19,2.29,2.29,0,0,0-1.13-2.13c.25,1.07.5,2.32-.5,3-.63.44-1.69.75-2.19,1.38A4.69,4.69,0,0,0,36.53,55c-.18,1.38.07,2.95,1.76,2.76.75-.07.94-.44,1.38-.88a3.6,3.6,0,0,1,1.13-.75c.31-.13.75-.06,1.06-.19.19.81-1.44,1-1.38,1.75,1.07.69,2.13-.75,3.26-.12-.69,1.06-2.13.63-3.07,1.19A1.6,1.6,0,0,0,42,59.1l1.12-.19c.44-.06.38.19.69.31a2.42,2.42,0,0,0-1.12.44c-.44.25-.69.13-1.13,0-.94-.31-2.13-.75-2.95,0,.5.63,1.76-.13,1.94.88a7.9,7.9,0,0,0-2.75-.25,3.43,3.43,0,0,1-2.57-.5c-.38-.38-.13-1.95-.06-2.45-.76-.06-.94,1.51-1.63,1.76-.07-.82-.19-1.45.43-2.07.13-.13.88-.75.63-.94-.31,0-.56.25-.88.37s-.43.07-.62.13a2,2,0,0,1,.25-.88c.19-.31.44-.31.69-.56a2,2,0,0,0,1.06-1.32c-.31-.44-1.56.57-1.75.69-.13-1.13.81-1.31,1.56-1.75a2.09,2.09,0,0,0,.51-2.39c-.63-1.88-2.82-2.75-4.64-3-.57-.07-1.82.06-2.13-.38s-.5-.75-.75-1.06c-.07-.13-.44-.51-.44-.63.31-.38.69-.75,1.06-1.13C29.39,43.3,30.33,43.37,31.58,43.37Zm-2.19-1a10.94,10.94,0,0,1,1.75-.69A26.2,26.2,0,0,0,28,43.8,15.65,15.65,0,0,1,29.39,42.36ZM31,40.3a13.65,13.65,0,0,0-3.95,3.88c-.19-.25-.06-1.63-.37-1.38a1.91,1.91,0,0,0-.32,2.2,9,9,0,0,0,1.44,1.94,2.84,2.84,0,0,1,.76,2.25c-.32-.5-1.13-1.19-1.76-.94.63.94,1.63,1.51,1.13,2.82a2.22,2.22,0,0,0-1-1.25c-.13-.06-.57-.31-.69-.12s.31.5.37.68c.69,1.26-.25,2.32-1.5,2.64.31-.57.75-1.88-.25-2.13.37,2.19-1.94,2.44-3.51,2.44a7.35,7.35,0,0,0-2.32.25c-.94.31-1,1.57-1,2.38,0,.57-.07,1.07.5,1.44a2.2,2.2,0,0,0,2.07.13c.5-.19.81-.63,1.19-.82.69-.5,1.44-.06,2.07.38-.44.13-.63.5-1.13.5a3.47,3.47,0,0,0-1.63.32c.19.81,1.82.18,2.38.37.25.06.81.5.5.75a1.4,1.4,0,0,1-1.32.07c-.62-.13-1.81-.69-2.06.18a1.16,1.16,0,0,1,1.44.69,6.36,6.36,0,0,0-1.51,0,2.62,2.62,0,0,1-1.31-.5c-.44-.25-1.07-.06-1.57-.19-.19.32.69.57.5.88-.88-.12-2.19-.5-2.5-1.44S16,56.84,15.6,56c-.5.44-.94.88-1.38,1.32-.37-1.13,1.82-1.94,1.13-2.88a3.53,3.53,0,0,0-.44.62,1.32,1.32,0,0,1-.44.44c-.06.06-.43.06-.5.13a1.29,1.29,0,0,1,.63-1.26c.38-.18,1.19-.62.75-1.19a3.91,3.91,0,0,1-1.06.5c-.13-2.06,2.75-1.63,3.94-2.5a2.38,2.38,0,0,0,.82-2.7c-.19-.88-.25-1.56-1.19-1.25s-2.32.81-3.45.37a4.59,4.59,0,0,1-2.07-1.88c-1.06-1.88-.69-4.19,0-6.14.94-2.63,5.21-8,1.63-10.27-1.69-1.07-3.51-.32-3.63,1.63-.13.94,0,1.69-.44,2.31-.5.82-1.63.57-2.07,1.51-.44-.88.63-1.51,1.13-2A1.75,1.75,0,0,0,9.21,31c-.31.19-.56.88-.81,1.25s-.57.32-.76.69c-.43-1,.25-1.25.76-1.94.25-.25,1-1.19.31-1.44A2.51,2.51,0,0,1,7.58,31c-.37-3,4.7-3.45,6.58-2.45,3.26,1.7,1.44,5.64.38,8.09a21.18,21.18,0,0,0-1.63,3.51,6.22,6.22,0,0,0-.38,2.19c0,.5.06.94.38.25.56-1.13,1.69-2,2.13-3.32a3.23,3.23,0,0,0,.12-1.75c-.18-.76-.06-.76.19-1.45,1.32,1.07.69,3.14,0,4.39s-1.63,2.13-1.82,3.45a2.38,2.38,0,0,0,2.64,2.88c.56-.06,1.81-.38,1.88-1A7,7,0,0,1,19,43.24c1.38-2.32,4.2-4.07,4.76-6.83.38-1.88-1.32-3.2-2.26-4.51a2.79,2.79,0,0,1-.56-1.69c0-.25-.25-.63-.44-.19a3.2,3.2,0,0,0-.12,1.06,2.45,2.45,0,0,1-.88-2.44c.12-1.88-.94,1-.69,1-.57,0-.69-2-.75-2.32s-.13-1.38-.44-.56a4.62,4.62,0,0,1-.19.88c-.5,0-.88-2.45-1.19-2.82s-.69-.38-1.13-.57a10.11,10.11,0,0,1-1.57-1.19c.32-.31,1.76-2.19,2.14-2s.25,1.44,1.19,1.06c.31-.25-.82-1.82-.88-2.25-.06-.76.31-1.45,1-.69a8.22,8.22,0,0,1,1.25,2.19,10.93,10.93,0,0,0,1,2.57,21,21,0,0,0,2,2.13L23.31,28c.19.19.82.81.06.81-.31,0-.31-.43-.56-.5a2.4,2.4,0,0,0,0,1.63,1.94,1.94,0,0,0,.56.82c.19.12,1.07.69,1.26.37a4.16,4.16,0,0,0-.13,1.26c.06.37.69,2.19-.31,1.38-.25.43.06.87.37,1.19a6,6,0,0,1,.88,1,2,2,0,0,0,1.26.88c.37.12.81,0,1.12.25a2.56,2.56,0,0,0,1.63.5c.38,0,.38-.06.63.19a1.84,1.84,0,0,0,.94.43A6.38,6.38,0,0,0,33.9,38C33,38.79,32,39.54,31,40.3ZM14.54,38.6c-.25.5-.44,1.13-.75,1.63s-.63.69-.76,1.13a28.15,28.15,0,0,1,1.51-3.7A2.48,2.48,0,0,1,14.54,38.6ZM34,37.6c-.06.06-.18.06-.25.13a1.87,1.87,0,0,0,.63-1.57c-.38.75-.88,1.5-1.88,1.5,1.88-1.12,1.07-3.32.94-5.14a2.78,2.78,0,0,0,1.76-.12C34.72,33.84,36,37.22,34,37.6Zm3.89-2.38c-.25.06-.5,0-.69.06a.59.59,0,0,0,.69.25c-1.57,1.32-2.57-1.06-2.19-2.32a2.05,2.05,0,0,1,.37-.87,4.77,4.77,0,0,1,1.76-.69c0,.81-.75,1.25-.82,2.07a.91.91,0,0,0,1.51.81,1.19,1.19,0,0,1-.63.69C37.79,35.22,38,35.16,37.85,35.22Zm.5-1.32c-.5.32-1.25.5-.81-.44.25-.56.81-1.06.69-1.69l.37,1a5.67,5.67,0,0,1,.25.62C39,33.65,38.54,33.72,38.35,33.9ZM53.2,33A20.37,20.37,0,0,1,47.94,40c-.5.44-1,.82-1.57,1.26l-1.19-1A25.86,25.86,0,0,1,42,37a12.87,12.87,0,0,1-3.26-6.83,5.32,5.32,0,0,1,.5-2.82,2.63,2.63,0,0,1,3.38-1.25c.19.25,0,.56-.25.69-.5.25-.44-.44-.69-.44-.5.5.57,1.5.94,1.69a1.65,1.65,0,0,0,1.44-.25,15.6,15.6,0,0,0,1.7.5,3.8,3.8,0,0,1,.5-2.88c.62.5.12,2.13.06,2.82.5-.25.88-.75,1.44-.81-.19.37-.56.62-.56,1.12a2.09,2.09,0,0,0,1.06-.18c0,.69,2.07.06,2.38-.07.69-.25,1.95-.87,1.26-1.75-.38.12-.13.56-.69.56-.38-.06-.69-.25-.57-.62.19-.57,1.26-.44,1.63-.25,1.19.43,1.63,2,1.7,3.07A8.7,8.7,0,0,1,53.2,33C53,33.59,53.33,32.78,53.2,33Z"/><path d="M49,34.09c-.25,0-.62.13-.68.44s-.32.25-.44.5.18.5.18.69-.43.5-.56.5-.75-.37-.63-.56.51-.06.69-.32.38-.62.13-.81a1.27,1.27,0,0,0-.44-.06c-.38,0-.19,0-.44-.25a.67.67,0,0,0-1.25.31c-.94-.25-.88,1-.25,1.07.94.18-.19.75-.38.56s-.37-.25-.37-.44c.18-.25.31-.63.06-.81s-.19-.19-.38-.44-.62-.44-.81-.25.25,1.81.31,2.19,0,1.25.56,1.25h4.14c.38,0,.38-1.25.38-1.56S49.38,34.09,49,34.09Zm-.37,1.63-.19,1.13c-.06.44,0,.44-.44.44H44.43c-.31,0-.25-.57-.31-.82l-.38-2c.19.06.25.12.25.31s.19.19.38.31-.32.63-.13.88c.38.38.88.82,1.38.38.13-.13.5-.5.5-.69.13-.44-.69-.38-.88-.69s.26-.19.38-.13c.63.25.25-.18.25-.31s.31-.5.5-.31c.38.31.07.25.07.5,0,.44.62,0,.81.06s-.31.5-.44.5c-.31,0-.44.19-.37.5s.31.5.5.63c.5.44,1,.06,1.38-.38.18-.25-.38-.69-.07-.87s.38-.07.38-.32.06-.25.25-.31C48.75,34.84,48.75,35.41,48.63,35.72Zm-3.26-2.88a16.58,16.58,0,0,0,.38-2.38c.06-.44.43-1.32-.32-1-.31.13-.31.32-.44.57s-.5.12-.43.56.31.5-.19.88c-.25.12-.94-.25-.82-.5s.44,0,.57-.13.5-.69.31-.87c-.19-.38-.56,0-.75-.32s-.38-.56-.69-.56-.38.19-.5.37-.13.19-.13.32a.68.68,0,0,0-.62.06c-.26.19-.07.56.06.75s.62.19.69.32c.19.37-1.51.94-1.07-.19.13-.38-.06-.38-.19-.63s-.12-.38-.37-.5c-.82-.56-.63.25-.57.75.13.75.19,1.57.38,2.32.13.44.25.31.69.31h1.69C43.8,32.84,44.74,33,45.37,32.84Zm-4.32-.32a18.82,18.82,0,0,0-.51-2.75c.38.06.13.5.44.56s.19.31.07.57.18.56.43.75c.51.37,1.88-.38,1.45-.94-.07-.13-1.13-.25-.88-.63.06-.25.69.19.81.06s-.31-.69.32-.75c.18,0,.31.19.37.31s-.12.07-.12.19c0,.44.69-.06.87.13-.18.56-.62.19-.94.56-.43.63.88,1.32,1.45.94.12-.12.43-.31.43-.56s-.37-.57-.12-.69A2.78,2.78,0,0,0,45.5,30c.12-.13-.07-.25.25-.38a15.13,15.13,0,0,1-.51,2.76C43.74,32.52,42.36,32.52,41.05,32.52Zm11.28-3.19a.77.77,0,0,0-.76.5c-.06.25-.37.19-.43.44-.13.5.43.63-.07.94-.25.19-1.13,0-.94-.44.07-.13.44,0,.57-.13s.5-.68.31-.87c-.19-.38-.56,0-.75-.32s-.38-.56-.69-.56-.38.19-.5.38-.13.18-.13.31a.75.75,0,0,0-.62.06c-.26.19-.07.57.06.75s.62.19.69.32c.19.37-.69.62-.94.44-.5-.38.25-.69-.19-1.13-.19-.19-.31-.06-.38-.38s-.94-.62-.87-.25c.12.82.25,1.63.43,2.45s0,.87.76.87H51.7c.44,0,.44-1.44.5-1.81C52.33,30.77,52.64,29.33,52.33,29.33Zm-4.7,3.19a18.82,18.82,0,0,0-.51-2.75c.32.06.13.25.26.31,0,.25.43.13.43.38s-.37.5-.18.75c.56.69,1.25.75,1.75-.06.38-.63-.56-.57-.81-1.07.06-.25.5,0,.69,0,.37,0-.19-.75.37-.75.25,0,.44.31.25.44-.37.31.88.25.88.25-.19.56-.63.19-.94.56-.44.63.88,1.32,1.44.94.13-.12.44-.31.44-.56s-.38-.57-.13-.69A2.78,2.78,0,0,0,52,30c.13-.13-.06-.25.25-.38a16.1,16.1,0,0,1-.5,2.76C50.26,32.52,48.94,32.52,47.63,32.52Z"/><path class="cls-1" d="M86.86,37.22c-6.21,0-10.78-3.5-10.78-10,.06-7.15,5.45-10.28,11.9-10.28a15.43,15.43,0,0,1,4.77.69l-.44,4.45h-1c-.51-2.51-1.7-3.32-4.33-3.32-4.64-.06-7,3.63-7,8,0,5.14,2.51,8.58,7.9,8.58a14.07,14.07,0,0,0,2.32-.25v-7h3.51A21.43,21.43,0,0,0,93.5,31c0,1.63.06,3.38.19,5a19.74,19.74,0,0,1-6.83,1.19ZM108,29.64c0,2.45-.76,5.89-3.83,5.89s-3.88-3.57-3.88-6,.75-5.89,3.82-5.89,3.89,3.57,3.89,6Zm.68-12.28A1.6,1.6,0,0,0,107,15.54c-1.13,0-1.63.82-1.63,1.88s.43,1.88,1.56,1.88,1.69-.81,1.69-1.94Zm-5.45,0a1.6,1.6,0,0,0-1.63-1.82c-1.12,0-1.63.82-1.63,1.88s.51,1.88,1.57,1.88,1.69-.81,1.69-1.94Zm8.21,11.84c0-4.26-2.63-7.27-7-7.27-4.77,0-7.59,3.39-7.59,8,0,4.2,2.64,7.27,7,7.27,4.7,0,7.58-3.38,7.58-8Zm11,7.21a8.56,8.56,0,0,1-3.32.75c-2.7,0-4-1.56-4-4.2,0-2.88.12-5.76.18-8.64l-2.69-.44V23l2.69-.56V18.55l3.14-.56-.06,4.45h3.88v1.81h-3.88c0,2.51-.07,5-.07,7.52,0,1.82.32,3.64,2.45,3.64a7.53,7.53,0,0,0,1.75-.32,10.09,10.09,0,0,1-.06,1.32Zm11.59-9h0l-6.33.19c.19-2,.94-4.08,3.32-4.08s3,2,3,3.89Zm3.39.31c0-3.88-2.07-5.76-6.21-5.76-4.51,0-7,3.32-7,7.52,0,4.63,2.82,7.58,7.59,7.58a9.67,9.67,0,0,0,5.07-1.25l.25-1.82a9.67,9.67,0,0,1-4.38,1.13c-3.89,0-5.14-2.7-5.14-6.08l9.71.12a10.7,10.7,0,0,0,.13-1.44Zm13.72,1.94h0c0,2.45-.88,5.9-3.88,5.9s-2.64-3-2.64-5-.06-4.76,0-4.95a4.89,4.89,0,0,1,3-1.13c2.88-.06,3.57,2.82,3.57,5.2Zm3.45-.87c0-3.7-1.76-6.9-5.83-6.9a4.69,4.69,0,0,0-4.2,2.26l.06-9.09c-.37,0-.75-.06-1.12-.06a20.07,20.07,0,0,0-4.33.44v.94c1.57.06,2.13.31,2.38,1.88a34.85,34.85,0,0,1,.19,5c0,4.2-.19,8.46-.31,12.66a10.08,10.08,0,0,0,5.32,1.19c4.89,0,7.84-3.51,7.84-8.33Zm13.28.81c0,2.45-.75,5.89-3.82,5.89s-3.88-3.57-3.88-6,.75-5.89,3.82-5.89,3.88,3.57,3.88,6Zm3.51-.44c0-4.2-2.69-7.2-7-7.2-4.76,0-7.64,3.38-7.64,8,0,4.19,2.69,7.26,7,7.26,4.7-.06,7.64-3.44,7.64-8Zm12.29-3.38h-.82a1.62,1.62,0,0,0-1.69-1.13,3.33,3.33,0,0,0-2.63,1.69V36.91H175c.25-3.13.38-6.33.38-9.46,0-2.07.25-3.76-2.39-3.89v-.87a16.31,16.31,0,0,1,4.58-.51h.75l.06,2.51A4.48,4.48,0,0,1,182.93,22a2.56,2.56,0,0,1,.94.12l-.25,3.7ZM193.77,27c0,1.5-.69,3.26-2.45,3.26s-2.5-2.32-2.5-3.89.69-3.38,2.44-3.38,2.51,2.57,2.51,4Zm5.14,11.66a3.69,3.69,0,0,0-1.51-3.2c-2.44-1.75-8.21.13-8.21-2.32a2,2,0,0,1,.69-1.57c3.45.44,7.21-1.06,7.21-5.07a5.08,5.08,0,0,0-.38-1.94h1.88V22.69h-3.38a6,6,0,0,0-3.7-1.07c-3.26,0-6,1.69-6,5.2a4.21,4.21,0,0,0,3.19,4.39,3.21,3.21,0,0,0-1.38,2.69,2.44,2.44,0,0,0,1.32,2.38c-1.94.26-3.57.94-3.57,3.14,0,3.44,4.07,4.32,6.76,4.32,3.26,0,7.09-1.19,7.09-5.07Zm-3.26.69c0,2.06-1.88,2.88-3.7,2.88s-3.51-.82-3.51-2.76S190.26,37,192,37c1.57.13,3.64.32,3.64,2.39Zm9-2.2A9.18,9.18,0,0,1,200,36.1l.38-2.89a6,6,0,0,0,4.26,2.26,2.19,2.19,0,0,0,2.45-2.07c0-1.63-1.38-2.19-3-2.76-1.88-.68-4.07-1.44-4.07-4.26,0-3.44,3.07-4.51,6-4.51a9.43,9.43,0,0,1,3.89.75l-.38,3.45h-1c-.25-1.5-1-2.51-2.7-2.51a2.21,2.21,0,0,0-2.38,2.07c0,1.57,1.44,2.07,3.07,2.63,1.94.63,4.08,1.38,4.08,4.26.06,3.45-3,4.64-6,4.64ZM81.91,66.3a9.89,9.89,0,0,1-5.64-1.5l.62-3.13c1.38,1.81,2.76,2.82,5.08,2.82,2,0,3.51-1.13,3.51-3.2,0-2.51-2.07-3.13-4.2-3.89-2.38-.81-4.89-1.69-4.89-5.39,0-4.13,3.76-5.95,7.4-5.95a8.22,8.22,0,0,1,4.45.88l-.44,4.13h-.94c-.07-.25-.07-.43-.13-.62a2.84,2.84,0,0,0-3.2-2.57c-1.88,0-3.44,1.06-3.44,3.07,0,2.57,2.25,3,4.51,3.82s4.58,1.82,4.58,5.52c-.13,4.2-3.51,6-7.27,6Zm18-.81a8.52,8.52,0,0,1-3.32.75c-2.69,0-4-1.57-4-4.2,0-2.88.12-5.76.19-8.65L90.05,53v-.87l2.7-.57V47.63l3.13-.57-.06,4.45H99.7v1.82H95.82c0,2.51-.06,5-.06,7.52,0,1.82.31,3.64,2.44,3.64a7.53,7.53,0,0,0,1.75-.32,9.22,9.22,0,0,1-.06,1.32ZM110,60c0,2.13-.19,4.26-2.82,4.26a2.18,2.18,0,0,1-2.26-2.38c0-1.19.63-1.63,1.57-2.07a9.6,9.6,0,0,1,3.57-1V60ZM115.37,66V65c-2.44-.07-2.32-1.82-2.32-3.83,0-1.5.13-2.94.13-4.45,0-3.94-1.38-5.64-5.46-5.64a7.5,7.5,0,0,0-5.32,1.76l.44,2.32h1A3.13,3.13,0,0,1,107,53c2.82,0,2.94,1.94,2.88,4.38a30.42,30.42,0,0,0-6.33,1.45,3.44,3.44,0,0,0-2.13,3.38c0,2.69,2.07,4.07,4.57,4.07a4.59,4.59,0,0,0,4.26-2.19l.07,1.88Zm11.47-9v6a3.58,3.58,0,0,1-3,1.31c-2.76,0-3.76-3-3.76-5.32,0-2.57.94-6.14,4.07-6.14,2.76,0,2.7,2.06,2.7,4.2Zm5.45,9.08v-.94a3.65,3.65,0,0,1-1.63-.56,2.76,2.76,0,0,1-.75-2.38c-.19-5.71,0-12.29.06-17.93a21,21,0,0,0-5.58.5v.88c2.57.13,2.51,1.63,2.51,3.57V51.7a6.7,6.7,0,0,0-2.69-.44c-4.64,0-7.59,3.14-7.59,7.9,0,3.88,2.2,7.21,6.33,7.21a5.47,5.47,0,0,0,4.26-1.82,14,14,0,0,1,.07,1.56h5Z"/></svg>