<?xml version="1.0" encoding="utf-8"?><svg xmlns="http://www.w3.org/2000/svg" viewBox="0 0 335.7 111.7" width="211" height="70"><g><g><path fill="#FFF" d="M48.5,111.4c-0.9,0-1.1-0.8-1.7-1.4c-0.6-0.6-1.2-1.2-1.9-1.7c-1.5-1.1-3.2-2-5-2.4 c-3.3-0.9-6.7-0.8-10-0.8c-7,0-15.1,1-21.3-3c-2.7-1.8-4.9-4.4-6.3-7.3c-1.7-3.7-1.9-7.6-1.9-11.6c0-3.6,0-7.3-0.1-10.9 c0-2.8,0-5.6-0.1-8.4c0.8,0.6,1.6,1.3,2.6,0.9c1-0.4,1.7-1.3,1.8-2.4c0-1,0-2,0-3c0.1-4.3,0.1-8.5,0.2-12.8c0-3.2,0.1-6.4,0.1-9.5 c0-1.8-0.5-2.8-2.4-3.2c-2-0.4-1.9-1.8-1.9-3.5c0-4.9,0.1-9.8,0.1-14.6c0-2.6,0.3-5.3,0.1-7.9C0.8,5.5,0.6,3,3.2,2.3 C4.7,1.9,8.8,1.8,9,4.2c0.2,1.9-2.3,2.3-3.7,2.6c3.3,1.1,6.5,1.7,10,1.4c4.2-0.3,7.6-2.1,11.2-4.1c3.2-1.7,6.4-3.8,10.2-3.7 c4.2,0.1,8.3,1,12.5,0.9c4.1,0,8.3-1.4,12.5-0.7c3.9,0.7,7,3.3,10.4,5.1c3.5,1.8,7.3,2.9,11.3,2.9c1.8,0,3.7-0.1,5.4-0.6 c0.5-0.1,1.6-0.3,1.5-0.8c-0.1-0.5-1.4-0.7-1.9-1c-1.5-1.2-0.3-2.6,1.1-3.1c1.8-0.5,4-0.4,5.6,0.5c1.3,0.8,1.3,2.3,1.3,3.6 c0,2.2,0,4.5,0.1,6.7c0,3.6,0.1,7.2,0.1,10.8c0,2,0,4,0.1,6.1c0,0.8,0.3,3.1-0.4,3.6c-1.1,0.7-3.3-0.3-3.9,1.3 c-0.3,0.8-0.1,1.8-0.1,2.6c0,1.2,0,2.3,0,3.5c0,4.3,0.1,8.7,0.1,13c0,1.5,0,2.9,0,4.4c0,1.8-0.6,4.6,1,5.8 c0.6,0.5,1.4,0.5,2.1,0.5c0.3,0,1.2-0.3,1.4,0c0.2,0.2,0,1.1,0,1.4c0,1.5,0,3.1-0.1,4.6c-0.1,4.1-0.1,8.2-0.2,12.3 C96.8,89,96,94.4,92.7,98.8c-3.6,4.7-9.2,6.6-14.9,6.6c-3.5,0-7.1,0.1-10.6,0.1c-5.5,0-12.6-0.4-16.4,4.6 C50,111,49.6,111.4,48.5,111.4z"/></g><g fill="#0076bc"><path d="M80.7 85.5c-5.4 6.7-11 13.2-17.2 19 4-.1 8 .1 11.9 0 3-.1 6.6 0 9.4-1.2 5.3-2.3 9-6.9 10.4-12.5 1-3.8.8-7.7.8-11.5 0-3.1 0-6.3 0-9.4C89.9 73.9 85.3 79.9 80.7 85.5 76.1 91.2 85.9 79.1 80.7 85.5zM2.5 33.6c1.1 0 2.5-1.6 3.4-2.5 1.4-1.4 2.7-3 3.9-4.6 2.5-3.3 4.5-6.9 7.4-9.9 2.6-2.8 5.7-5.1 9.1-7 1.8-1 3.6-1.6 5.2-2.9.7-.6 1.4-1.3 1.9-2-.5-.4-.7-1.4-.5-2C30.1 4 27.7 6 25 7.2c-2.9 1.3-6 2.2-9.1 2.5-4.8.4-11 .7-14.7-2.9 0 4.5-.1 9-.1 13.6 0 2.9-.1 5.7-.1 8.6C.9 30.4.3 33.6 2.5 33.6zM75.2 9c-4.3-1.3-7.8-3.9-11.9-5.6 0 1.2-1 1.9-2.1 2.2-1.1.3-1.1.1-1.9.8-2.4 2.3-4.7 4.5-7.2 6.7l-4.4 3.2c-1.4.8-4.1 2.8-4.1 2.8l-2.8 1.7 0 0c-.1 0-.2 0-.4.1-.3.2-.7.4-1 .7-.8.6-1.6 1.2-2.3 1.8-1.6 1.3-3 2.8-4.5 4.2-.7.8-1.4 1.6-2.1 2.4-.5.5-.4.4 0 .7.3.3.6.6.9.9-.5.5-1.1 1-1.6 1.5l-7 6.2c-1.5 1.5-4.4 4.6-4.4 4.6l-7.9 7.2c-1.2 1.2-2.5 2.3-3.8 3.4-.7.6-1.6.9-1.6 1.8 0 1.8 0 3.6-.1 5.4 0 .9-.3 1.8-.9 2.4-.6.6-1.3.9-2.1.9-.4 0-.9-.1-1.3-.1-.1.1 0 .4-.1.5-.2.6 0 1.6 0 2.2 0 6.3.1 12.6.1 18.9 2.3-1.7 4.5-3.5 6.8-5.2 1.8-1.4 3.7-2.8 5.5-4.3 1-.8 1.9-1.6 2.9-2.4.4-.3 1.8-1.1 1.9-1.6l4.1-3.7c0 0 .1 0 .1 0 4.1-4 7.8-8.4 11.2-13 0 0 .5-.6 1.8-2.4l27.6-26.4c7.3-5 14.5-10.5 19.9-17.5C80.1 9.9 77.6 9.7 75.2 9z"/><g><path d="M96.3,31.3c-0.1-3.3-0.2-6.6-0.2-9.9C90,28.8,81.3,32.7,74.2,38.8c-0.2,0.1-0.3,0.3-0.5,0.5l-4.6,4 c-0.3,0.3-0.5,0.7-0.8,1l-0.4,0.4c-1.1-0.3-2.2-1.5-1.8-2.5c0,0.1,0.1,0.1,0.1,0.2c0.8,1.5,2.5-0.5,1.1-1c-1.5-0.5-3.1,0-4.2,1 c-1.9,1.8-2.1,5.1-1.5,7.5c0.1,0.3,0.2,0.6,0.3,0.9l-40.7,41c-3.2,3.7-6.4,7.4-9.5,11.2c4,1.7,8.3,1.6,12.5,1.6 c2.3,0,4.6,0.1,6.8,0.1c1.5,0,3.2,0.6,4.4-0.4c2.9-2.4,5.9-4.8,8.7-7.3c1.7-1.5,3.4-3,5-4.5c0.7-0.7,1.5-1.3,2.2-2l15.5-16.9 c2-2.2,3.9-4.5,5.8-6.7c0.1-0.1,0.1-0.1,0.1-0.2h0l0.9-0.7l0,0c0.1,0,0.3,0,0.6-0.2c0.8-0.6,1.5-1.2,2.3-1.9 c1.3-1.2,2.5-2.4,3.7-3.7c0.6-0.7,1.2-1.4,1.7-2.2l1.5-1c2.7-2.2,5.5-4.3,8.4-6.2c0.3-0.5,0.1-1.8,0.1-2.4c0-0.3,0-0.6,0-1 c0-3.6,0-7.1,0-10.7c0-1.5,0.1-2.5,1.9-2.7c1.1-0.2,2.6,0.3,2.7-1.3C96.3,32.2,96.3,31.8,96.3,31.3z"/><path d="M66.2,42.3C66.3,42.6,66.1,42.3,66.2,42.3L66.2,42.3z"/></g></g><g fill="#FFD300"><path d="M69.5 43L70 44.1 71.9 42.7 72.1 41.4 70.3 41.2 69.3 42.4z"/><circle cx="75.2" cy="42.3" r="1"/><circle cx="77.1" cy="43.2" r=".9"/><path d="M64.8 52.3L71.7 52.1 72.5 47.1 71.7 47.6 71.1 48.4 71.2 49.5 70.2 50.4 68.8 49.5 69 48.8 69.8 48.8 70.2 47.8 69.3 47.6 68.3 46.6 67.6 46.9 67.4 47.6 66.3 47.7 66.4 48.4 67.6 49 67.3 50 65.9 50.2 65.3 49.7 65.5 48.5 64.1 47.2 63.9 47.6zM75.3 52.3L82.3 52.1 82.9 47.1 82.2 47.6 81.7 48.4 81.7 49.5 80.8 50.4 79.3 49.7 79.5 48.8 80.4 48.8 80.8 47.8 79.9 47.6 78.8 46.6 78.2 46.9 78 47.6 76.7 47.8 76.9 48.4 78.1 49 77.9 50 76.5 50.2 75.8 49.7 76 48.5 74.7 47.2 74.4 47.6zM70 59.8L76.9 59.7 77.6 54.7 76.9 55.2 76.1 56.1 76.4 57.1 75.4 58 73.9 57.3 74.2 56.4 75.1 56.3 75.5 55.4 74.5 55.2 73.5 54.2 72.9 54.5 72.6 55.2 71.4 55.4 71.6 56 72.8 56.6 72.6 57.5 71.1 57.8 70.5 57.3 70.7 56 69.3 54.7 69.1 55.2z"/><ellipse cx="78.7" cy="44.1" rx=".6" ry=".7"/><path d="M69.8,95l-0.9-2l0.7-2.1L67,90.8l-0.5-2.3l-3.1,0.7l-2.6,2.3l-2.4-0.9L58.2,87l3.4-2.6l1.9-2.2l1.1,0.8 l1.4-1.9l0.3-3l1.3,0.1l-0.8-3.8l-2.8-3L57.5,69l-9.9-0.6l2.9-2l-2.6-0.6l9-8.1l2.7-0.3l1.7-2.2l-0.7-0.5l-1.8-0.2l1-3l1.2-2.3 l-0.1-5L58,41.5l0.7-2.7L58.4,37l-7.6,0.5l-1.1-2.4l2.2-2.4l4.3,0.6l4.2-1l1.3-2.5l0.5-2.6l-2-0.9l-3.1-1.2L56,23.1l1.9-2.1 l1.7-1.9l-1.8-0.5l0.1-1.1l-0.7-0.9v-0.8l-1.6-1.4l-0.9,0l-0.5-0.7l-2.9-0.4L51,12.2l-1.5-0.5l-1.1,0.6l-0.3,1.3L47,13.4L46.3,14 l-1-0.2l-0.6,0.7l-1.2,0.2l-0.1,0.8L42.2,16l0.1,1.1l-0.6,0.5v1.2l-1.2,0.1l-1,0.9l1.9,0.9l1.5,1.3l0.2,2.3l-3.3-0.8l0.8,2.6 l1.8,1.7L39.2,29l-1,1.4l-0.3,5v9.3l-6.8-6.2l-2-4.6l1.9-2.4l-2.9-2.8l13.5-14.6l6.3-7.7h-1.3l-6.7,6L25.5,26.1l-2.6-2.6L21,25.2 l1.5,2.1L21,28.8l-1.4,0.7L19.1,31l-1.3,1.4l0.7,3l0.8,1.4l1.1-0.2l3.5,2.6L25,40l1.8,4.4l1,0.3l0.7,2.3l1.4,1l3.7,3.5l2.8,4.3 v2.9l-1.6,3.4l-3.3,3.6l-3.1,4.5l-0.8,2.9l-3.7,0.7l-2.4-1.9l0.9-4.2l2.4-4l0.8-4.3l-1.7-2.3l0.7-1.1l1-4.1l-1-5l-2.7-2L19,44.4 l-3.4,0.2l-3.4,1.7l-1.3,2.2l0.7,5.6l0.4,2.1l1.9-1.5l1.7-0.9l0.7-2.3l0.4-3l1.5-1.4h2.8l2,1.6L23,52l-1.2,3.5l-0.6-0.2L19.1,55 l-1.8,0.6l-2,1.3L12,59l-1,2.2l-0.4,3.9l0.9,0.4L11,66.8l0.5,2.3l3.1-1.3l1.3-3v-4.2l1.7-2.9l3.3,0.1l-3.3,8.5l0.3,5.6l2.5,4.2 l4.2,0.8l3.5-0.5l1.1,2l-1.5,3.2l-5.6,2.1l-0.6,3.2l-0.3,2.7l0.3,2.3l1.6-0.3l1,3.5l4.3,1.7l0.1-1.6l2,1.1l4.5,0.2l0.2-1.6l2.4,0 l0.6-1l-1.4-1.7l1.2-1l-3.3-1.4l-2.3,1.4l-3,0.5L28.8,89l1.6-3l2.8-0.2l4.1-0.8l1.6,0.5l2.8-1.3l1.5-1.9l1.5-0.7l0-2.5l1,0.3 l-0.3-3.6l5.3,1l4.4,3.1l0.3,3.5l-3.1,2.4l0.4,1.8l-0.7,2l0.7,4.9l1.8-1.1l0.3,1.3l1.4,1.8l8.3,0.6l-0.2-1.6l1.8,0.4L69.8,95z M51.6,18.9l-0.5,0v-3l2.6,0.5l1.8,1.4l0.5,1.5l-1.4-0.2l-0.8,0.5l0.3,0.6l1.4,0.6l-1.7,0.7l-2.6-0.3l0.9-1l0.4-0.8L51.6,18.9z M20,67.1l0.8-4.2l2.3-3.6l-0.5,4.3L20,67.1z M46.6,21.4L44,21.2l-0.2-0.4l1.2-1.1l-0.3-0.7L43,19.4l0.5-1.3l1.5-1.6L48,16 l0.1,2.8l-1.2,0.3l-0.7,0.8l1.2,1.1L46.6,21.4z"/></g><g fill="#C24F3B"><path d="M24.2 28.9c.1.3.3.6.3 1V30l.1-.2c.2-.3.5-.6.8-.7l-1.3-.5L24.2 28.9zM22.5 31.1c.3.3.7.5 1 .6l.1 0 0-.1c0-.4 0-.8-.3-1.2C23.2 30.7 22.9 30.9 22.5 31.1zM21 32.5c.3.3 1 .5 1.2.6l.1 0 0-.1c0-.6-.1-1-.4-1.4C21.7 32.2 21.5 32.3 21 32.5zM62 33.4C62 33.4 62 33.4 62 33.4c.1.4 0 .8-.3 1.1-.4.3-.9.5-1.6.5-.5 0-1-.1-1.4-.1L58 34.6c-1.3-.4-2.8-.8-4.3-.8-1.4 0-2.4.4-3.3 1.1l0 1.3c.8-.8 1.9-1.1 3.3-1.1 1 0 2.2.2 3.6.7.7.3 2.1.8 3.3.8.8 0 1.3-.2 1.7-.6.5-.5.7-1.1.5-1.7C62.9 33.9 62.6 33.4 62 33.4zM19.3 34.7c.2.2.6.4 1 .4l.1 0 0 0c0-.3 0-.9-.3-1.2C20.1 34 19.8 34.5 19.3 34.7z"/><path d="M53.4 37.1c.2.1.5.1.7.1.3 0 .6-.1.9-.2l-.8-1L53.4 37.1zM55.7 37.1c.2.1.4.1.7.1.3 0 .5-.1.8-.2L56.5 36 55.7 37.1zM70.8 44.1c.4.2.8.3 1.3.3l.1 0 0-.1c0-.4-.1-.8-.3-1.2L70.8 44.1zM74.1 43.3C74.1 43.3 74.1 43.3 74.1 43.3L73.9 44H74c.2 0 .3-.1.5-.2.1-.1.2-.1.3-.2C74.6 43.5 74.4 43.3 74.1 43.3zM75.6 44.8L75.5 45h.1c.4 0 .9-.2 1.1-.4l-.6-.5C75.9 44.3 75.7 44.6 75.6 44.8zM77.5 44.6l-.4.6h.1c.3 0 .6 0 .8-.2L77.5 44.6zM68 88.4c-.3 0-.6.1-.9.2l-.1 0 .2 1 .1 0c.4-.3 1.6-.5 1.6-.6C68.8 88.6 68.5 88.4 68 88.4zM38.8 90.7c-.1 0-.2 0-.4.1-.1.3-.2.4-.1.6.1.2.4.2.6.2l.5 0c.2 0 .4 0 .5.1l.1-.1C39.6 91 39.2 90.7 38.8 90.7zM70.2 91.3C70.2 91.3 70.2 91.3 70.2 91.3c0 .4-.1.7-.4 1.1 0 0 .4-.1.9-.1.3 0 .6 0 .8.1l.1 0 0-.1C71.6 91.5 70.7 91.3 70.2 91.3zM38.8 93.9c0 .3-.1.5-.3.8l1.2.4 0-.5C39.5 94.2 39.1 93.9 38.8 93.9zM70.2 94.1C70.2 94.1 70.2 94.1 70.2 94.1c-.2.2-.3.3-.2.5 0 .2.3.4.6.5.1 0 .2.1.3.1l.1 0 0-.7C70.8 94.4 70.6 94.1 70.2 94.1zM35.3 95.3l0 1c.6.1 1.1.4 1.3.8l.1.1 0-.1c.1-.3.1-.6-.1-1C36.3 95.6 35.8 95.3 35.3 95.3zM29.1 95.7c0 0-.1.5-.3 1 .5.2 1.2.7 1.2.7l.1.1 0-.3C30 96.7 29.9 96.1 29.1 95.7zM63.9 97.1l.1.1c.3.2.5.5.6.8l0 .1.2-.1 0 0c.2-.4.2-1.1-.1-1.5L63.9 97.1z"/></g><path fill="#FFF" d="M49.1 28.2L52.3 28.7 52.8 26.3 49.9 27.1z"/><g><path d="M46.6 23.1c-.5-.4-1.4-.5-1.9 0C45.2 23.5 46.2 23.6 46.6 23.1 46.4 22.9 46.4 23.3 46.6 23.1zM50.5 23.1c-.5-.4-1.4-.5-1.9 0C49 23.6 50 23.6 50.5 23.1 50.2 22.9 50.2 23.3 50.5 23.1zM54.1 23.1c-.5-.4-1.4-.5-1.9 0C52.6 23.6 53.6 23.6 54.1 23.1 53.8 22.9 53.9 23.4 54.1 23.1z"/><path d="M97.4,63.6c0-1.1-2-2.2-3-1.8c-1.5,0.6-0.4,3,0.8,2.4c0.8-0.4-1.8-2,0-1.6c1.5,0.3,2.3,2.4,0.2,2.4c-3,0-2.4-3.4-2.4-5.4 c0-1.2,0-2.3,0-3.5c0-4.4-0.1-8.7-0.1-13.1c0-1.6,0-3.3-0.1-4.9c0-0.8-0.3-2.5,0.5-2.9c1.2-0.7,3.9,0.3,3.9-1.8c0-0.3,0-0.6,0-0.9 c0-1.8,0-3.5-0.1-5.3c0-3.7-0.1-7.4-0.1-11.2c0-2.7,0-5.4-0.1-8.1c0-1.9,0.3-3.9-1.9-4.8c-1.7-0.7-3.7-0.9-5.5-0.3 c-1.5,0.5-3,1.9-1.5,3.4c0.5,0.5,1.6,1.1,2.4,1.1c-3,1.3-6.5,1.4-9.7,1c-3.9-0.5-7.1-1.9-10.4-3.9c-2.8-1.6-5.6-3.6-8.9-4 c-4-0.5-7.9,0.7-11.9,0.8C45.1,1,41,0.1,36.8,0C33-0.1,30,1.9,26.8,3.6c-3,1.6-5.6,3.4-9.1,4C13.9,8.2,10.2,8,6.5,6.8 C7.8,6.6,9.1,6,9.3,4.5C9.5,3,7.9,2.2,6.6,1.9c-1.5-0.3-4-0.2-5.1,1c-1,1-1,3-0.9,4.4c0.3,2.6-0.1,5.7-0.1,8.4 c0,3.4,0,6.8-0.1,10.3c0,1.7,0,3.4,0,5.1c0,0.3,0,0.7,0,1c0.1,1.8,1.4,1.9,2.7,2.2c1.4,0.3,1.6,1.4,1.6,2.5c0,1.5,0,2.9-0.1,4.4 C4.6,45.6,4.5,50,4.5,54.4c0,2.7-0.1,5.3-0.1,8c0,1.1-1.1,2.1-2.2,2.1c-2.1,0-1.3-2.5,0.4-2.5c0.9,0,0.1,0.7-0.3,0.9 c-0.3,0.1-0.9,0.3-0.7,0.7c0.6,1.2,2.3-0.8,2.2-1.5c-0.2-1.8-3-0.8-3.5,0.3C0,62.9,0,63.4,0,63.8c0,1.2,0,2.4,0,3.6 c0,4.4,0.1,8.7,0.1,13.1C0.2,84,0,87.6,0.7,91c1.5,6.9,6.9,12.5,13.9,13.9c4.2,0.8,8.8,0.4,13.1,0.5c4.1,0.1,8.6-0.3,12.6,0.9 c3,0.9,5.6,2.8,7.4,5.4c0.3,0.1,1.7,0.1,2,0c0.6-0.3,1.3-1.4,1.8-2c3.8-4.2,10.5-3.8,15.6-3.9c3.8,0,7.6-0.1,11.5-0.1 c6.2,0,12-2.7,15.3-8.1c2.5-4,3.3-8.2,3.3-12.8c0.1-4.3,0.1-8.5,0.2-12.8c0-1.9,0.1-3.8,0.1-5.7C97.4,65.5,97.7,64.3,97.4,63.6z M60.4,0.8c2.7,0,5.4,1.7,7.6,3c2.5,1.5,5.1,2.8,7.7,3.8c3.9,1.2,8.2,1.6,12.2,0.8c1.4-0.3,3-0.6,4.2-1.4c1.3-0.8,1.4-3.4-0.6-3.4 c-1.1,0,0.2,1.4,0.3,1.6c0.2,0.9-1.5,0.7-2,0.6c-1.4-0.4-2-1.8-0.4-2.5C91.4,2.6,98,3.7,95,7c-2.4,2.6-6.9,2.6-10.2,2.6 c-4,0-8-0.6-11.7-2c-3.6-1.4-6.7-3.9-10.3-5.4c-0.9-0.4-3.6-1.3-3.7,0.4c0,0.6,0.7,1.3,0.9,0.4c0.1-0.8,0.6-0.8,1.4-0.6 c1,0.3,1.2,1.4,0.4,2c-0.8,0.6-2,0.5-2.9,0.1c-0.8-0.3-1.5-1.1-1.3-2C57.7,1.3,59.4,0.8,60.4,0.8z M39.1,1.2 c0-0.2-0.1-0.3-0.2-0.4c3.1,0.5,6.3,0.7,9.5,0.7c1.9,0,3.9-0.2,5.8-0.3c1-0.1,2.4,0,3.4-0.4c-1.1,0.8-1.9,2.8-0.4,3.7 c-3-0.5-6-0.6-9.1-0.6c-3.3,0-6.7-0.1-10,0.5C38.9,3.4,39.7,2.6,39.1,1.2C39.1,1.1,39.2,1.5,39.1,1.2z M2.1,3.4 c1.4-1.1,4.8-1.5,6,0.2c1.4,2.3-4.5,2.1-2.7,0.6C6.1,3.7,5.7,3,4.9,3.3c-0.5,0.2-0.8,0.6-1.1,1c-1,1.5,2.1,3,3,3.4 c7,2.7,15.7,0,21.5-4.2c2.2-1.6,5.6-3.1,8.4-2.6C40.8,1.4,36,6.2,34,4.4c-1.1-1.1,0.6-2.6,1.8-2c0.5,0.3-0.3,1,0.4,1 c0.9,0,0.8-1.3,0.2-1.7c-1.2-0.9-3.5,0.5-4.5,1c-1.3,0.7-2.5,1.4-3.8,2c-1.7,0.9-3.2,1.9-5,2.6c-1.8,0.7-3.6,1.2-5.5,1.5 c-3.8,0.7-8.2,0.9-12-0.2c-1.3-0.4-2.5-1-3.4-2C1.4,5.9,1,4.3,2.1,3.4C2.8,2.9,2,3.5,2.1,3.4z M96,70c0,3.4,0,6.8-0.1,10.2 c0,4.9,0,9.7-2.1,14.3c-1.4,3-3.6,5.6-6.4,7.4c-3,1.9-6.1,2.3-9.6,2.5c-4.1,0.2-8.2,0.1-12.3,0.1c-3.2,0-6.5,0-9.6,0.9 c-2.9,0.8-5.5,2.4-7.2,4.9c-4.5-5.9-11.6-5.9-18.4-6c-7.7-0.1-17.1,1.1-23.2-4.7c-7.2-6.9-5.8-17.5-6-26.6c0-1.8,0-3.5-0.1-5.3 C1,66.9,1.2,66,1,65.3c5.6,1.2,4.5-6.3,4.6-9.7c0.1-2.9,0.1-5.8,0.1-8.6c0-3.7,0.1-7.3,0.1-11c0-2.2-1.7-2.4-3.4-2.8 c-1.7-0.4-1.1-3.1-1.1-4.4c0-4.9,0.1-9.9,0.1-14.8c0-1,0-2,0-3c0-1.2,0.2-2.7,0-3.8c3.7,3.7,9.9,3.1,14.7,2.7 c3.1-0.3,6-1.3,8.8-2.3c1.4-0.6,2.8-1.6,4.1-2.4c1.3-0.8,2.8-1.4,3.9-2.3c-0.3,0.6-0.1,1.6,0.4,2c1.1,1,2.8,0.7,4.1,0.5 c3.5-0.6,7.2-0.7,10.7-0.7c3.5,0,6.9,0.3,10.3,0.7c1.1,0.1,1.9,0.5,3.1,0.3c1-0.2,2.2-1.1,2.1-2.2c2.7,1.3,5.5,2.8,8,4.2 c3.6,1.7,7.6,2.4,11.5,2.6c3.9,0.2,10.2,0.7,12.9-2.7c0.1,5.6,0.1,11.1,0.2,16.7c0,2.1,0.1,4.3,0.1,6.4c0,0.5,0,1,0,1.5 c0,1.6-0.9,1.4-2.1,1.5c-1,0.1-2.5,0.4-2.5,1.7c-0.1,0.4,0,0.9,0,1.3c0,1.9,0,3.9,0,5.8c0,3.4-0.1,6.8-0.1,10.3c0,2.7,0,5.4,0,8.1 c0,0.7,0,1.4,0,2c0.2,1.8,2.4,3.8,4.4,2.9C96.1,67.2,96.1,68.6,96,70z"/><path d="M86.7,45.6c-0.3-2.3-1.6-4.7-4.1-5.1c-1.1-0.2-2.7-0.1-3.2,1c-0.6,1,0.4,2.4,1.5,2.2c-0.3,0.2-1,0.2-1.2,0.4 c0.1-0.5-0.8-1.8-1.4-1.1c0-0.5-0.2-0.9-0.6-1.1c-0.6-0.3-0.8,0.1-1.2-0.4c0,0-1.4-1.3-1.6-0.7c-0.3-0.7-0.7-2.1-1.8-1.7 c-0.7,0.3-0.8,1.2-1.5,1.5c-1.9-0.1-3.5,1.4-2.5,3.1c-1,0.4-1.3,0.1-2.2-0.3c0.9-0.1,1.7-1,1.6-1.9c-0.2-1.3-1.8-1.5-2.8-1.4 c-1.9,0.2-4.4,1.6-5,3.4c-0.7-0.7-1.7-1.5-2.1-2.5c-0.2-0.4,1.2-3.6,0.3-3.8c1.3,0,2.8,0.1,3.9-0.7c1.1-0.9,1.4-2.4,0.4-3.4 c-0.4-0.4-1.5-1.1-2.1-0.6c-0.3,0.3-0.1,0.9-0.2,1.2c-0.6,1.5-3.3-0.2-4.3-0.1c2.2-0.3,4.8-0.8,5.2-3.3c0.1-0.6,0.2-1.2,0.4-1.8 c0.1-0.4,0.4-0.8,0.5-1.1c0.5-1.2-2.7-1.6-3.5-1.8c-0.8-0.3-2.6-1-2.6-2.1c0-1-0.1-1.1,0.7-1.7c0.5-0.4,1-1,1.5-1.4 c0.2-0.2,1.4-0.8,1.4-0.9c0.2-0.7-1.7-1.9-2.3-1.2c0.4-0.5,0.2-1.3-0.5-1.5c0.3-0.7,0-1.5-0.7-1.8c-0.6-0.2-0.3-0.5-0.9-0.9 c-0.2-0.2-0.8-0.3-1-0.1c-0.2-0.5-0.5-0.9-1.1-0.9c-0.8,0-0.3,0.3-1-0.1c-0.3-0.1-1-0.3-1.1,0.1c0-0.7-0.4-1.5-1.2-1.7 c-0.5-0.2-0.6-0.1-0.5-0.7c0.3,0,0.7,0,1,0c0.1-0.7-0.3-0.6-0.9-0.5c-0.2,0-0.1-0.6-0.1-0.8c-0.2,0-0.5,0-0.7,0c0,0.2,0,0.5,0,0.7 c-0.3,0-0.6,0-1,0c-0.1,1,0.9,0.2,0.9,0.6c0.1,0.7,0,0.4-0.6,0.7c-0.5,0.3-1.2,1-0.9,1.7c-0.4-0.5-1.5-0.2-1.6,0.4 c-0.6-0.5-1.6-0.2-1.7,0.6c-0.5-0.2-1.9,0.2-1.5,1c-0.8-0.1-1.7,0.9-1.1,1.6c-0.6,0.2-1,1-0.6,1.5c-0.9-0.3-2,0.4-2.3,1.2 c0,0.2-0.2,0.3-0.1,0.4c0,0.1,1.3,0.4,1.5,0.5c0.2,0.1,2.1,1.6,2.1,1.6c0,0.4,0,0.8,0,1.3C41.8,23.3,41,23,40.1,23 c-1.1-0.1-1.1,0.4-0.9,1.4c0.3,1.2,0.8,2.5,2,3.1c-1.4,0.2-3.1,1.1-3.4,2.6c-0.2,0.8-0.2,1.7-0.1,2.6c-0.2,0.8-0.5,1.5-0.5,2.4 c0,1.1,0.1,0.3,0.1,0.5c0.2,0.6,0,0.9-0.1,1.5c-0.2,0.9-0.1,1.6,0,2.5c0,0.6-0.2,1.3,0,1.9c0.2,0.7,0.4,1.4,0.3,2.1 c-1.5-1.3-3-2.6-4.4-4.1c-0.6-0.6-1.4-1.3-1.9-2.1c-0.4-0.9-0.8-1.8-1.1-2.7c-0.1-0.3-0.6-1.2-0.4-1.5c0.5-0.5,1-0.9,1.5-1.4 c0.6-0.5-0.2-0.9-0.7-1.3c-0.6-0.5-1.2-1.4-1.9-1.6c3.7-4.4,7.8-8.6,11.7-12.9c1.5-1.6,2.9-3.3,4.3-5c1-1.2,1.9-2.3,2.8-3.6 c0.2-0.3,1.3-1.5,0.8-1.8c-0.6-0.4-1.9,0.6-2.4,0.9c-1.2,0.9-2.3,2-3.3,2.9c-1.1,1-2.2,1.9-3.2,2.9c-2.4,2.3-4.7,4.9-7.3,7.1 c-1.1,0.9-2.2,2-3.3,3c-0.7,0.7-1.4,1.4-2.1,2c-0.3,0.3-1,0.8-1.1,1.1c-0.5-0.5-1-1.2-1.5-1.7c-0.4-0.4-0.9-1.5-1.4-1 c-0.8,0.7-1.6,1.5-2.3,2.2c0.5,0.6,1.1,1.1,1.7,1.7c-0.5,0-1,0.3-1.3,0.7c-0.1,0.1-0.4,1.1-0.4,1.1c-1,0-2.5,1.5-1.6,2.4 c-0.8-0.1-1.7,0.6-1.5,1.5c0.1,0.4,0.2,0.8,0.4,1.2c0.3,0.5,0.5,0.4,0.3,0.9c-0.5,1,1.5,3.4,2.1,2.4c0.9,1,2,2,3.2,2.5 c0.4,0.2,1.2,0.3,1.4,0.7c0.6,1,0.7,2.3,1.3,3.4c0.5,0.8,0.5,2.1,1.1,2.8c0.2-0.4,0.4-0.7,0.5-1.1c0.4,1.4,0.8,2.9,2,3.7 c0.2-0.2,0.2-0.7,0.1-0.9c0.5,0.9,0.9,1.7,1.5,2.5c0.7,1.1,0.9,1.3,1.2,0.1c2,1.8,4.6,5.1,3.7,7.9c-1.1,3.1-3.8,5.3-5.8,7.8 c-1.1,1.4-2.2,2.8-2.7,4.6c-0.3,1-0.1,1.6-1.1,2.1c-1,0.4-2.1,0.7-3.1,0.1c-2.7-2-0.5-5.1,0.9-7.3c1.8-2.8,2.9-6.1,0.4-8.9 c1.3-2.7,2.3-6.5,0.9-9.3c-1.4-3.2-5-4.1-8.3-3.7c-2.7,0.4-5.5,1.1-6.3,4c-0.3,1-0.4,2.2-0.3,3.2c0.1,0.6,0.2,1.2,0.2,1.8 c0,0.5-0.2,1.5,0.5,1.3c-0.3,1,0,2,0.8,2.6c0.6-1.9,2.8-1.9,4-3.3c1.5-1.7,0.7-3.3,1.3-5.3c0.7-2.2,3.9-1,4.9,0.3 c1.3,1.7,0.3,4.5-0.3,6.4c-1.8-0.7-3.9-0.6-5.4,0.5c-1.4,1-2.8,2-4.2,3c-1.6,1.1-2,2.7-2.1,4.6c-0.1,0.5-0.1,1-0.1,1.5 c0,1-0.2,1.5,0.9,1c-0.6,0.9-0.9,2.2-0.6,3.2c0.2-0.1,0.7-0.4,0.7-0.6c0,0.6-0.4,1.2-0.1,1.8c1.2-1,3-0.9,4.1-2.1 c1-1,1.4-2.4,1.4-3.8c0-1.6-0.3-3.1,0.2-4.6c0.5-1.5,2.3-1.8,3.6-1.4c-1,2.7-2.5,5-3,8c-0.6,3.7-0.3,7.9,3.1,10.3 c1.7,1.2,3.8,1.3,5.7,1c0.5-0.1,0.9-0.2,1.4-0.4c0.8-0.3,0.8,0.5,0.9,1.2c0.1,1-0.1,2.1-0.8,2.8c-1.3,1.5-3.5,1-5.1,1.8 c-1.3,0.7-2.1,2.9-1.6,4.3c0.1-0.1,0.3-0.1,0.4-0.2c-0.2,0.5-0.3,1-0.4,1.6c0,0.2-0.5,1.9,0.2,1.2c-0.2,1-0.2,2.7,0.3,3.5 c0.5-0.4,1.1-0.9,1.6-1.3c-0.2,1.6,0.3,3.4,1.8,4.2c1.8,1,4.1,0.9,5.9,2c0-0.5,0-1,0-1.5c2.2,0.5,5.1-0.7,6.4,1.8 c0.2-0.9,0.7-2.4-0.2-3c0.5-0.5,1.2-0.4,1.9-0.3c0.7,0.2,1.4,0.8,1.5-0.3c0.1-1.6-1.6-1.8-2.5-2.8c0.9-0.5,2.1,0,3,0.3 c0.1-0.9-0.8-1.9-1.6-2.1c-0.4-0.1-0.9-0.1-1.3-0.1c-0.5-0.4-1.1-0.6-1.7-0.8c-1.2-0.3-2-0.1-2.9,0.6c-0.7,0.6-1.6,1.2-2.6,1.2 c-2.4,0-1.5-4.1,0.1-4.7c2.3-0.9,5.2,0.6,7.3-0.9c0,0.2,0.1,0.3,0.1,0.5c1.5-0.4,4.6-1.1,4.9-3c0.2,0.1,0.3,0.3,0.4,0.6 c1.1-0.9,1.7-2.3,1.6-3.7c0.1,0.1,0.3,0.2,0.4,0.3c0.7-1,0.5-2.6,0.3-3.8c3,0.4,8.4,1.1,9.2,4.9c0.4,2-1.8,2.2-2.8,3.5 c-0.6,0.7-0.8,1.6-0.8,2.5c0.1,0.4,0.1,0.9,0.6,0.4c-0.6,0.8-0.9,1.9-0.9,2.8c0,0.2-0.1,1.7,0.5,0.8c0.4,1.4,0.3,2.7,0.3,4.1 c0.9-0.2,1.7-0.6,2.3-1.3c-1.5,2.5,2.9,2.7,4.3,2.7c1.5,0,2.9,0,4.4,0.3c1.1,0.2,1.6,1.4,1.8,2.4c0.6-1.1,1.3-2.7,0.4-3.8 c1,0.2,2.2,0.5,3.3,0.1c0.4-0.2,0.7-0.6,1.2-0.6c0.7,0,1.2,0.5,1.6,1c0.6-0.3,0.5-1.5,0.4-2c-0.1-0.3-0.3-0.7-0.6-0.9 c-0.3-0.3-1.2-0.1-1.3-0.5c1.1-0.5,1.9,0.2,2.6,0.9c0.2-1,0.3-2.4-0.8-3.1c-1.2-0.7-3-0.3-4.3-0.5c0.8-0.5,1.7-0.7,2.7-0.4 c0.4-0.8-0.4-1.8-1.2-2.1c-1.2-0.4-2,0.3-3.1,0.3c-1.1,0-2,0.4-2.9,1.1c-0.5,0.4-0.9,0.9-1.3,1.4c-0.4,0.3-0.5,0.2-1.1,0.2 c-0.7-0.1-1.5,0.1-1.7-0.8c-0.1-1.1-0.3-2.2,0.3-3.1c0.6-0.9,1.8-1.4,2.7-1.9c0.7-0.5,1.9-1.3,2.1-2.1c0.1,0.3,0.2,0.8,0.5,0.8 c0.5,0,1-0.5,1.3-0.9c0.5-0.5,0.9-1.2,1.1-1.8c0.3-0.8,0.1-1.7,0.4-2.4c0.1,0.2,0.7,0.3,0.9,0.5c0.6-1.7-0.1-4-1.1-5.5 c-1-1.7-2.9-3.1-4.8-3.9c-4-1.7-9-1.8-13.3-1.7c0.8-0.6,1.8-1,2.7-1.6c-0.4-0.6-1-1.1-1.7-1.1c0.6-0.5,1.2-0.9,1.8-1.4 c0.4-0.3,0.8-0.7,1.3-1c0.3-0.2,1.1-1.2,1.5-1.2c0.7,0,2.4-2.1,2.8-2.7c0.3-0.3,0.6-0.5,0.8-0.9c0.7,0.1,1.4,0,2.1-0.3 c0.6-0.3,1.1-0.8,1.3-1.4c0.2-0.4,0.2-1,0.5-1.3c0.5-0.4,1.8,1.9,2,2.1c1.9,2.5,3.9,4.9,6.2,7.1c1,0.9,2,1.9,3,2.7 c0.5,0.4,0.4,0.5,0.9,0.1c0.7-0.6,1.3-1.1,1.9-1.7c1.8-1.8,3.8-3.5,5.4-5.6c1.5-2,3-4,4-6.4C86.3,50.8,86.8,48.4,86.7,45.6z M78.7,43.6c0.5,0,0.7,1,0.1,1C78.3,44.6,78.1,43.6,78.7,43.6z M77.9,45c-0.2,0.1-0.4,0.2-0.7,0.2C77.4,44.8,77.6,44.6,77.9,45z M76.9,42.6c0.7,0,1.1,1.1,0.2,1.1C76.5,43.8,76.3,42.6,76.9,42.6z M76.6,44.5c-0.3,0.2-0.7,0.3-1,0.4 C75.9,44.4,76.2,43.9,76.6,44.5z M74,43.6c0,0,0.1-0.2,0.1-0.3c0.2,0,0.4,0.1,0.5,0.3c0,0,0,0,0,0c-0.2,0.1-0.4,0.2-0.6,0.3 C74,43.9,74,43.7,74,43.6z M75.9,42.6c-0.4,0.6-1.5,0.3-1.4-0.4C74.6,41.3,76.5,41.7,75.9,42.6C75.8,42.8,76,42.5,75.9,42.6z M71.2,43.6c0.2-0.1,0.4-0.2,0.5-0.4c0.2,0.3,0.2,0.7,0.3,1c-0.4,0-0.8-0.1-1.2-0.2C70.9,43.9,71.1,43.7,71.2,43.6z M71,41.5 c0.1,0,0.2,0.1,0.4,0.1c1.2,0.9-1.3,1.6-1.2,2.2c-0.1-0.4-0.5-0.8-0.5-1.3C69.7,41.8,70.4,41.5,71,41.5z M58,34.6 c0.8,0.2,1.7,0.4,2.6,0.3c0.5,0,1.2-0.2,1.5-0.7c0.1-0.1,0.3-0.8,0-0.9c1.3,0.1,0.9,2.1,0.1,2.6c-1.2,0.8-3.2,0.2-4.4-0.3 c-1.1-0.4-2.4-0.7-3.6-0.8c-1.1-0.1-3,0.2-3.7,1.2C50,32.7,56.2,34.2,58,34.6z M51.5,33.6c1-1,2.5-0.6,3.8-0.3 c-1.1-0.1-3.1-0.2-4.1,0.6C51.3,33.8,51.4,33.7,51.5,33.6z M52.5,37.1c-0.5,0.2-1.1,0-1.6-0.2c0.8-0.7,1.8-1,2.8-1 C53.3,36.2,53,37,52.5,37.1C52.3,37.1,52.6,37,52.5,37.1z M54.3,36c0.2,0.3,0.5,0.6,0.7,0.9c-0.5,0.2-1,0.1-1.6,0.2 C53.8,36.7,54,36.4,54.3,36z M55,35.9c0.3,0,0.6,0.1,0.9,0.1c-0.1,0.2-0.3,0.4-0.4,0.5C55.3,36.3,55.1,36.1,55,35.9z M56.6,36.2 c0.2,0.3,0.4,0.5,0.6,0.8c-0.4,0.2-0.9,0.1-1.3,0.1C56,36.8,56.3,36.5,56.6,36.2z M50.9,13c-0.3,0-0.6,0-0.9,0c0-0.3,0-0.6,0-0.8 C50.4,12.2,50.7,12.6,50.9,13z M50.8,13.5c-0.2,1.2-2.2,1.3-2.4,0.1C49.2,13.6,50,13.5,50.8,13.5z M49.3,12.2c0,0.9,0,0.8-0.9,0.9 C48.5,12.6,48.8,12.2,49.3,12.2z M41.8,17.8c0.2-0.8,0.9-0.2,1.1-0.7c-0.7-0.1-0.6-1.2,0.1-1.3c0.4-0.1,0.7,0.3,0.9,0 c0-0.1-0.4-0.5-0.1-0.9c0.2-0.3,0.6-0.2,0.9,0c0.6,0.5,0.1,0.2,0.3-0.3c0.2-0.5,0.6-0.6,1.1-0.4c0.2,0.1,0.3,0.5,0.4,0.5 c0.3,0.1,0.2-1.5,1.2-1c0.9,0.5,1.1,1.6,2.5,1.4c0.9-0.2,1.3-1.5,2.1-1.5c0.9,0,0.3,0.7,0.7,0.8c0.2,0,0.1-0.3,0.2-0.3 c0.5-0.4,1.2-0.3,1.4,0.4c0.2,0.7-0.2,0.5,0.3,0.2c0.6-0.4,1.6,0.5,1,1c0.3,0.4,0.4-0.4,1,0c1.1,0.6-0.1,1-0.1,1.4 c0,0.2,0.6,0,0.8,0.2c0.8,0.7-0.4,1.6-0.8,2.1c-0.6-2.5-2.3-3.7-4.8-3.7c-0.8,0-0.9-0.1-0.9,0.7c0,0.7,0,1.5,0.1,2.2 c-0.3-1.1-2.1-1.4-2.3-0.1c0-0.6,0-1.2,0-1.8c0-1.1,0.2-1.2-1-1.2c-2.4,0-4.4,1.2-4.8,3.7C42.3,19,41.6,18.4,41.8,17.8 C41.9,17.6,41.7,18.1,41.8,17.8z M53.3,19.4c-0.1,0.7,0.7,1.2,1.3,1.5c-0.9,0.3-1.9,0.1-2.9,0c0.7-0.7,1.6-1.3,0.6-2.1 c-0.1-0.1-1-0.4-1-0.3c0-0.4,0-0.7,0-1.1s0-0.7,0-1.1c0-0.2,1.2-0.1,1.3,0c1.5,0.2,2.3,1.1,2.7,2.5C54.7,18.8,54,19,53.3,19.4 C53.3,19.5,53.8,19.1,53.3,19.4z M45.9,19.6c-0.5,0.3,0.6,1.2,0.9,1.3c-0.8,0.4-1.9,0.2-2.7,0c1.6-0.7,1.2-2.7-0.5-1.9 c0.1-0.9,0.6-1.7,1.3-2.2c0.9-0.6,1.8-0.3,2.7-0.5c0,0.6,0.1,1.2,0.1,1.8C47.8,18.7,46.4,19,45.9,19.6z M42.5,21.2 c-0.1-0.3,0-0.6-0.3-0.8c-0.5,0.1-0.5,0.4-0.9,0c-0.2-0.3-1-1-1.4-0.9c0.8-1.1,1.8-0.1,2.3,0.5c0.6,0.7,1.6-1.5,2.4-0.4 c-0.1,0.4-0.5,0.6-0.9,0.7c-0.1,0-0.7,0.1-0.8,0.2c-0.1,0.4,0.1,0.8,0.6,1c1.2,0.3,5.3,0.9,5.1-1.3c-0.4,0-0.7,0.3-1.2,0.3 c-0.6,0-1.1-0.7-0.5-1c0.8-0.5,1.7,0.8,2.2,0.3c-0.3-0.4-0.2-1.9,0.6-1.2c0.5,0.4,0.2,1-0.1,1.3c0.9,0.3,1.6-1.3,2.5-0.1 c-0.1,0.4-0.4,0.6-0.7,0.7c-0.4,0.2-0.9-0.3-1.2-0.2c-0.3,2.2,5.8,2.4,5.8,0.5c-0.1-0.3-2.3-0.2-2-1c0.6-0.7,2,0,2.2,0.8 c0.5-0.7,1.9-2.1,2.8-1.1c-0.4,0.1-0.9,0.6-1.2,0.9c-0.2,0.2-0.2,0.7-0.5,0.7c-0.5-0.1-0.6-0.3-0.8,0.2c-0.7,1.5-2.9,1-4.3,1 c-1.9,0-3.8,0-5.7,0C45.6,22,43,22.5,42.5,21.2C42.4,21.1,42.8,21.9,42.5,21.2z M43.2,22.5c4.2,0,8.3,0,12.5,0 c-0.3,0.2-0.5,0.4-0.8,0.7c0.3,0.2,0.6,0.5,0.9,0.7c-4.2,0-8.3-0.1-12.5-0.1C43.7,23.2,44,22.8,43.2,22.5z M40.7,25.6 c-0.2-0.5-0.5-1.1-0.7-1.6c1.1,0.3,2.3,0.7,3.4,1c0.6,0.2,0.6-0.7,1-0.7c0.3,0,0.7,0,1,0c2.9,0,5.9,0.1,8.8,0.1 c1,0,1.7-0.2,2.5,0.7c0.9,1,1.7,1.2,3,1.6c0.9,0.3,2.9,0.5,1.6,1.7c-0.4,0.4-1.3-0.2-1.6,0.1c-0.5,1.1,1,0.8,1.4,0.8 c0.2,4.4-5.6,3.1-8.2,2.6c-2.3,0-4.4,1.8-3.9,4.3c0.3,1.3,1.8,2.1,3,1.6c1.1-0.4,2.6-0.3,3.8-0.1c0.8,0.1,1.8-0.8,2.2,0 c0.2,0.5,0,1.5-0.3,2c-0.5,0.5-1.1,0.3-1.7,0.5c0.5-0.3,1-1.3,0.1-1.3c-1.1,0.8-1.9,1.6-3.3,1.3c0.2-0.1,0.5-0.4,0.4-0.7 c0-0.9-0.9,0.1-1.1,0.2c-0.6,0.4-1.3,0.5-2.1,0.4c-0.7-0.1-1-0.5-1.6-0.8c-0.1,2,2.2,2.2,3.7,1.7c0.2,0,0.5,0.3,0.7,0.3 c0.6,0.2,1.2,0.1,1.8,0c0.5-0.2,0.5-0.3,1.1-0.2c0.5,0.1,1.2,0.2,1.6,0c-0.1,1.7,1.9,2.4,2.6,3.7c0.4,0.7,0.4,1.7,0.3,2.5 c0,0.4-0.1,0.8-0.3,1.2c-0.2,0.6-0.8,1-1,1.4c-0.2-0.4,0.2-0.9-0.1-1.3c-0.3,0.6-0.7,1.2-1.3,1.6c1-2.5-1.2-4.1-1.2-6.5 c-1.6,0.2,0,3.4,0.1,4c0.4,1.6-0.2,3-1.9,3.4c0.1-0.2,0.7-1.2,0.3-1.4c-0.5,0.8-1,1.3-2,1.5c0.8-1.1,0.6-2.3,0.3-3.5 c-0.2-0.8-0.4-1.6-0.2-2.4c0.1-0.7,0.6-0.7,0.8-1.2c-0.7-0.9-1.6,0.7-1.7,1.2c-0.1,0.6-0.1,1.2-0.1,1.7c0,0.7,0.1,1.5,0.1,2.2 c0,0.4-0.1,0.9-0.3,1.3c-0.2,0.3-0.9,0.4-1.1,0.6c0.1-0.5,0.3-0.9,0.2-1.4c-0.4,0.2-0.7,0.7-1,1c-0.5,0.4-0.8,0.3-1.4,0.5 c1.2-1,1-2.6,0.9-4c-0.1-0.8-0.1-1.6,0.3-2.3c0.3-0.6,0.8-1.3-0.3-0.7c-3.1,1.6,0.9,6.1-3.1,6.9c0.2-0.3,0.3-0.8,0.3-1.2 c-0.3,0.1-0.6,0.5-0.9,0.7c-0.5,0.3-0.8,0.2-1.3,0.2c1.4-0.5,1.7-2,1.6-3.2c0-0.5-0.1-1.2,0-1.7c0-0.3,0.8-1.9,0.8-1.9 c-2,0-1.9,2.5-2,3.8c-0.2,1.7-1,2.3-2.6,2.5c0.1-0.2,0.5-0.5,0.4-0.8c-0.6,0.2-1.5,0.3-2.1-0.1c1.7,0,1.9-2.3,1.7-3.5 c0-0.6,0.2-1.4,0.6-2c-0.1,0.2,0.8-0.6,0.3-0.2c0.4-0.4,0.1-0.8-0.4-0.6c-1,0.4-1.2,2.1-1.5,2.9c-0.2,0.8-0.3,1.7-0.9,2.2 c-0.7,0.7-2,0.6-2.9,0.2c1.7-0.1,2.2-2.9,2-4.2c-1,0.9-0.7,4-2.7,3.6c-0.4-0.1-0.6-0.4-0.8-0.7c1.5,0.4,2.4-1.7,2-2.9 c-0.2-1,0.1-2.1,1.2-2.6c1.5-0.7,3.6-0.3,4.7-1.8c0.8-0.9,0.9-2.2,1-3.5c0.1-2.8,0.1-5.6,0-8.5c0.9,0.4,1.9,0.1,2.8,0.3 c1,0.2,1.7,1,2.7,1.2c1.1,0.2,4.7-0.3,3.6-2.2c0.9,0,2.9-0.1,2.2-1.4c-0.5-0.7-2-1.4-2.7-0.6c0.7,0.4,1.4,0.2,1.9,1 c-1.3,0.8-2.6-0.3-3.9-0.2c-1.2,0.9-2.7,1.5-4.3,1.5c-0.7,0-1.4-0.1-2-0.4c-0.7-0.3-0.8-0.8-1.5-0.2 C42.9,27.7,41.5,26.7,40.7,25.6z M51.9,55.4c0.5,2.2-0.3,4-2.5,4.6c0.5-0.3,0.6-0.9,0.9-1.3c0,0,0-0.1-0.1-0.1 c-0.5,0.7-1.2,1.2-2.1,1.1c1.5-1,1.6-2.8,1.6-4.4c0-0.8-0.1-1.7,0.1-2.5c0.1-0.8,0.2-0.7,0.9-0.5c0.5,0.1,1.1,0.1,1.4-0.3 C51.7,53,51.8,54.2,51.9,55.4z M48.9,51.8c-1.3,2.6,1,6.7-3.1,7.3c0.4-0.3,1.1-0.7,1.1-1.3c-0.7,0.8-1.4,0.8-2.3,0.9 c0.6-0.3,1.2-0.4,1.4-1.2c0.4-1.3,0.1-2.6,0-4c0-0.6-0.1-1.3,0.1-1.9c0.1-0.1,0.6,0,0.8,0c0.7-0.1,0.8-0.3,1.4,0 C48.5,51.7,48.7,51.7,48.9,51.8z M41.6,57.2c-0.4,0-0.8-0.2-1.1-0.4c3.1,0.5,2.2-4.3,2-5.9c0.7,0,1.2-0.1,1.8,0.3 c0.1,0.1,0.8,0.2,0.8,0.3c0.1,0.4-0.1,1.1-0.1,1.6c0,1.2,0.5,2.9-0.1,4c-0.4,0.8-2.1,1.1-2.9,0.6c0.4-0.2,0.8-0.5,1-0.9 C42.5,57,42.1,57.2,41.6,57.2z M40,55.6c0.4-0.2,0.6-0.6,0.5-1c-0.3,0.1-0.9,0.3-1.1,0.4c0.9-0.5,0.6-1.4,0.4-2.2 c-0.3-1.1-0.4-2-0.2-3.1c0.3,0.4,0.7,0.7,1.2,0.8c0.4,0.1,0.7-0.1,0.7,0.4c0,0.4,0,0.8,0.1,1.1c0.1,1,0.4,2.2,0,3.1 C41.2,55.8,40,55.7,40,55.6z M41.3,33.2c-1.1,0.2-2.4,0.5-2.8,1.6c-0.4-1.3,0.8-2.6,1.9-3.1c0.8-0.4,1.7-0.6,2.6-0.9 c0.4-0.1,1-0.2,1.2-0.4c-0.3,0.7-0.9,0.9-1.6,1.2c0.3,0.2,1.4,0.3,1.7-0.1C43.6,32.6,42.4,33,41.3,33.2 C40.9,33.3,42.4,33,41.3,33.2z M51.9,27.6c-0.1,0.2-0.1,0.6,0.2,0.8c-0.7,0-1.5-0.1-2.1-0.5c0.6-0.4,1.9-1.6,2.5-1.2 C52,26.9,51.9,27.2,51.9,27.6z M39.3,29.7c1.1-1.7,3.3-0.6,4.8-1.6c-0.3,0.8-1.3,0.5-1.8,1.1c0.6,0.2,1.4,0,2,0 c-1.4,1.4-4.5,0.4-5.5,2.4C38.4,30.9,38.8,30.2,39.3,29.7C39.9,28.7,39,30,39.3,29.7z M38.8,35.6c0.5-0.9,1.4-1.5,2.4-1.7 c0.8-0.1,2.1-0.1,2.8-0.6c-0.3,0.8-1.4,0.8-1.8,1.5c0.4,0.1,1.7,0.2,2.1-0.1c-0.6,1.4-2,1.6-3.3,1.8c-0.6,0.1-1.3,0.3-1.8,0.7 c-0.2,0.2-0.6,0.7-0.9,0.7C38.2,37.3,38.3,36.2,38.8,35.6z M38.4,39.6c0.9-2.6,3.8-1.9,5.6-3.3c-0.1,1.2-1.4,1.1-2.1,1.8 c0.4,0.2,1.4,0.3,1.8,0c0.1,2.4-4.5,1.6-5.5,3C38.2,40.6,38.2,40,38.4,39.6z M24.2,27.5c-1-0.6-1.8-1.7-2.7-2.4 c0.6-0.5,1.2-1.6,1.8-0.9c0.8,1,1.5,1.9,2.4,2.9c3.4-3.7,7.1-7,10.6-10.5c1.7-1.6,3.4-3.2,5.1-4.8c0.9-0.8,1.9-1.7,2.8-2.4 C45,8.7,46.3,7,47.3,6.7c-3.5,4.4-7.6,8.6-11.4,12.8c-1.8,2-3.6,3.9-5.5,5.9c-0.5,0.5-1.5,2.2-2.1,2.2c-0.2,0-1.2,1.3-1.1,1.3 c0.5,0.5,1,1,1.6,1.4c0.4,0.4,0.9,1.1,1.4,1.2c-0.3,0.2-1,0.7-1.1,1.1C28.3,30.4,26.3,28.5,24.2,27.5z M22.2,33.8 c-0.3,0.4-0.7,0.7-1,1.1c-0.1-0.4,0-1.4-0.3-1.7C21.3,33.4,21.7,33.7,22.2,33.8z M20.2,34c0.1,0.3,0.2,0.7,0.1,1 c-0.3,0-0.6-0.2-1-0.3C19.7,34.6,20,34.3,20.2,34C20.3,34.2,20.1,34.2,20.2,34z M21.6,28.3C22,27,23.2,29,23,29.8 C22.7,31.2,21.3,29.2,21.6,28.3C21.7,28,21.4,28.9,21.6,28.3z M21.9,31.8c0.2,0.3,0.3,0.8,0.3,1.2c-0.4-0.1-0.9-0.2-1.2-0.5 C21.5,32.4,21.8,32.2,21.9,31.8C22.1,32.2,21.8,32.3,21.9,31.8z M23.1,33.1c-0.1-0.3-0.1-0.7-0.1-1c0.3,0.1,0.6,0.2,0.8,0.3 c0.2,0.1,0.3-1.5,0.4-1.6c0,0.4,0,0.8,0,1.1C24.3,32.5,23.6,32.7,23.1,33.1C23.1,32.8,23.5,32.8,23.1,33.1z M23.6,31.5 c-0.4-0.1-0.7-0.3-1-0.4c0.1,0,0.8-0.4,0.8-0.6C23.5,30.8,23.6,31.1,23.6,31.5C23.3,31.4,23.6,31.3,23.6,31.5z M24.5,29.9 c0-0.4-0.1-0.8-0.3-1.1c0.4,0.1,0.7,0.3,1.1,0.4C25,29.2,24.6,29.5,24.5,29.9C24.5,29.5,24.6,29.5,24.5,29.9z M20.3,29.7 c1,0,1.7,1.8,0.5,2.2C19.8,32.3,18.8,30,20.3,29.7C20.8,29.7,19.8,29.8,20.3,29.7z M18.3,33.3c-0.4-1,0.3-1.9,1.1-0.8 C20.4,33.7,18.9,34.5,18.3,33.3z M19.5,36.5c-0.3-0.2-1.3-1-0.5-1.2c0.2-0.1,0.9,0.3,1,0.4C20.3,35.7,19.7,36.3,19.5,36.5z M19.2,56.8c-3.1,0-3.8,2.8-3.7,5.3c0.1,1.5,0.1,3-0.6,4.3c-0.3,0.5-0.7,1-1.2,1.4c-0.4,0.3-1.8,0.3-1.9,0.6c0.7-1,2.6-2,1.7-3.5 c-0.3,1.1-1.3,1.8-2.1,2.5c-0.1-1.4,3.3-4.5,1.4-5.7c-0.2,0.5-0.3,1.1-0.5,1.6c-0.2,0.6-0.9,1-1.1,1.5c-0.3-1.1-0.1-2.6,0.2-3.7 c0.4-1.4,1.6-2,2.7-2.7c1.4-0.8,2.7-2.2,4.2-2.8c1-0.3,2.3,0,3.2,0.4c-0.2,0.4-0.5,0.8-0.6,1.2C20.3,57,19.8,56.8,19.2,56.8z M28.9,96.5c0.1-0.1,0.4-0.6,0.3-0.8c0.7,0.4,0.5,1,0.9,1.5C29.7,97,29.3,96.7,28.9,96.5C29.1,96.2,29.4,96.7,28.9,96.5z M36.2,96.5c-0.8-0.6-0.8-0.2-0.9-1.2c1,0.1,1.1,0.9,1.4,1.7C36.6,96.8,36.4,96.7,36.2,96.5z M38.5,94.6c0.2-0.2,0.3-0.4,0.4-0.7 c0.5,0.1,0.8,0.5,0.8,1C39.3,94.8,38.9,94.7,38.5,94.6z M40,91.5c-0.4-0.4-1.3,0.2-1.6-0.3c-0.2-0.3,0.1-0.5,0.4-0.5 C39.3,90.8,39.7,91.2,40,91.5C39.9,91.4,39.6,91,40,91.5z M44.9,78.7C44.9,78.6,44.9,78.6,44.9,78.7 C44.9,78.7,44.9,78.7,44.9,78.7z M64.7,98c0-0.4-0.4-0.8-0.7-0.9c0.2-0.2,0.4-0.3,0.7-0.5C64.9,97,64.8,97.6,64.7,98 C64.6,97.7,64.8,97.6,64.7,98z M70.6,95c-0.4-0.2-0.8-0.4-0.4-0.8c0.4,0.1,0.7,0.5,0.7,1C70.8,95.1,70.7,95,70.6,95 C70.4,94.9,70.7,95,70.6,95z M71.6,92.3c-0.5-0.1-1.2-0.2-1.7,0c0.3-0.3,0.4-0.6,0.2-1C70.7,91.4,71.5,91.6,71.6,92.3 C71.4,92.2,71.5,91.5,71.6,92.3z M68,88.5c0.3,0,0.7,0.1,0.8,0.4c-0.5,0.1-1.2,0.2-1.5,0.5C67.2,88.7,67,88.5,68,88.5z M49.9,69.2 c6.5,0,15.6,0.3,17.1,8.3c-0.9-0.7-1.7-1.5-2.6-2.1c-0.1,0.9,0.9,2.4,1.2,3.3c0.3,1.2,0.1,2.5-0.9,3.5c0-1.3-0.5-2.8-1.8-3.4 c0.4,1.7,0.8,3.7-0.8,4.8c-1,0.7-2.7,1.2-3.5,2.2c-0.4,0.6-0.6,1.3-0.8,1.9c-0.3,2.2,0.1,4.7,2.8,4.4c1.2-0.1,1.5-0.7,2.2-1.4 c0.5-0.5,1.1-0.9,1.8-1.2c0.5-0.2,1.2-0.1,1.7-0.3c0.3,1.3-2.3,1.6-2.2,2.8c1.7,1.1,3.4-1.2,5.2-0.2c-1.1,1.7-3.4,1-4.9,1.9 c0.5,0.5,1.3,0.7,2.1,0.6c0.6-0.1,1.2-0.2,1.8-0.3c0.7-0.1,0.6,0.3,1.1,0.5c-0.7,0-1.2,0.4-1.8,0.7c-0.7,0.4-1.1,0.2-1.8,0 c-1.5-0.5-3.4-1.2-4.7,0c0.8,1,2.8-0.2,3.1,1.4c-1.2-0.4-3.1-0.5-4.4-0.4c-1.3,0.1-3,0.2-4.1-0.8c-0.6-0.6-0.2-3.1-0.1-3.9 c-1.2-0.1-1.5,2.4-2.6,2.8c-0.1-1.3-0.3-2.3,0.7-3.3c0.2-0.2,1.4-1.2,1-1.5c-0.5,0-0.9,0.4-1.4,0.6c-0.3,0.1-0.7,0.1-1,0.2 c0.1-0.5,0.1-1,0.4-1.4c0.3-0.5,0.7-0.5,1.1-0.9c0.8-0.5,1.5-1.1,1.7-2.1C55,85.2,53,86.8,52.7,87c-0.2-1.8,1.3-2.1,2.5-2.8 c1.2-0.8,1.2-2.5,0.8-3.8c-1-3-4.5-4.4-7.4-4.8c-0.9-0.1-2.9,0.1-3.4-0.6c-0.4-0.6-0.8-1.2-1.2-1.7c-0.1-0.2-0.7-0.8-0.7-1 c0.5-0.6,1.1-1.2,1.7-1.8C46.4,69.1,47.9,69.2,49.9,69.2z M46.4,67.6c1-0.4,1.8-0.9,2.8-1.1c-1.6,1.2-3.5,1.9-5,3.4 C44.9,69.1,45.6,68.3,46.4,67.6z M49,64.3c-2.4,1.8-4.8,3.6-6.3,6.2c-0.3-0.4-0.1-2.6-0.6-2.2c-1,0.8-1,2.5-0.5,3.5 c0.5,1.2,1.5,2.1,2.3,3.1c1,1.2,1.3,2.2,1.2,3.6c-0.5-0.8-1.8-1.9-2.8-1.5c1,1.5,2.6,2.4,1.8,4.5c-0.3-0.8-0.8-1.6-1.6-2 c-0.2-0.1-0.9-0.5-1.1-0.2c-0.1,0.2,0.5,0.8,0.6,1.1c1.1,2-0.4,3.7-2.4,4.2c0.5-0.9,1.2-3-0.4-3.4c0.6,3.5-3.1,3.9-5.6,3.9 c-1.2,0-2.5,0-3.7,0.4c-1.5,0.5-1.6,2.5-1.6,3.8c0,0.9-0.1,1.7,0.8,2.3c1.1,0.7,2.1,0.6,3.3,0.2c0.8-0.3,1.3-1,1.9-1.3 c1.1-0.8,2.3-0.1,3.3,0.6c-0.7,0.2-1,0.8-1.8,0.8c-0.9,0-1.8,0.1-2.6,0.5c0.3,1.3,2.9,0.3,3.8,0.6c0.4,0.1,1.3,0.8,0.8,1.2 c-0.6,0.5-1.4,0.3-2.1,0.1c-1-0.2-2.9-1.1-3.3,0.3c0.9-0.3,2.1,0.2,2.3,1.1c-0.8-0.2-1.6,0-2.4,0c-0.8,0-1.4-0.4-2.1-0.8 c-0.7-0.4-1.7-0.1-2.5-0.3c-0.3,0.5,1.1,0.9,0.8,1.4c-1.4-0.2-3.5-0.8-4-2.3c-0.5-1.4,0.5-3-0.1-4.4c-0.8,0.7-1.5,1.4-2.2,2.1 c-0.6-1.8,2.9-3.1,1.8-4.6c-0.3,0.3-0.5,0.7-0.7,1c-0.2,0.3-0.4,0.5-0.7,0.7c-0.1,0.1-0.7,0.1-0.8,0.2c0-0.8,0.2-1.6,1-2 c0.6-0.3,1.9-1,1.2-1.9c-0.6,0.3-1.1,0.7-1.7,0.8c-0.2-3.3,4.4-2.6,6.3-4c1.5-1.1,1.7-2.7,1.3-4.3c-0.3-1.4-0.4-2.5-1.9-2 c-1.7,0.5-3.7,1.3-5.5,0.6c-1.4-0.5-2.5-1.8-3.3-3c-1.7-3-1.1-6.7,0-9.8c1.5-4.2,8.3-12.8,2.6-16.4c-2.7-1.7-5.6-0.5-5.8,2.6 C15.8,50.8,16,52,15.3,53c-0.8,1.3-2.6,0.9-3.3,2.4c-0.7-1.4,1-2.4,1.8-3.2c0.7-0.8,0.6-1.6,0.4-2.7c-0.5,0.3-0.9,1.4-1.3,2 c-0.4,0.4-0.9,0.5-1.2,1.1c-0.7-1.6,0.4-2,1.2-3.1c0.4-0.4,1.6-1.9,0.5-2.3c-0.3,0.8-1,1.9-1.8,2.2c-0.6-4.8,7.5-5.5,10.5-3.9 c5.2,2.7,2.3,9,0.6,12.9c-0.9,1.8-2,3.6-2.6,5.6c-0.3,1.1-0.7,2.2-0.6,3.5c0,0.8,0.1,1.5,0.6,0.4c0.9-1.8,2.7-3.2,3.4-5.3 c0.3-0.9,0.4-1.8,0.2-2.8c-0.3-1.2-0.1-1.2,0.3-2.3c2.1,1.7,1.1,5,0,7c-1,1.8-2.6,3.4-2.9,5.5c-0.4,2.7,1.4,4.8,4.2,4.6 c0.9-0.1,2.9-0.6,3-1.6c0.2-1.4,0.8-2.8,1.5-4c2.2-3.7,6.7-6.5,7.6-10.9c0.6-3-2.1-5.1-3.6-7.2c-0.7-1-0.8-1.5-0.9-2.7 c0-0.4-0.4-1-0.7-0.3c-0.2,0.5-0.2,1.2-0.2,1.7c-1.4-0.8-1.5-2.6-1.4-3.9c0.2-3-1.5,1.6-1.1,1.6c-0.9,0-1.1-3.2-1.2-3.7 c0-0.4-0.2-2.2-0.7-0.9c0,0-0.2,1.4-0.3,1.4c-0.8,0-1.4-3.9-1.9-4.5c-0.4-0.5-1.1-0.6-1.8-0.9c-1-0.5-1.7-1.3-2.5-1.9 c0.5-0.5,2.8-3.5,3.4-3.2c0.5,0.5,0.4,2.3,1.9,1.7c0.5-0.4-1.3-2.9-1.4-3.6c-0.1-1.2,0.5-2.3,1.6-1.1c0.8,1,1.5,2.2,2,3.5 c0.5,1.3,0.8,3.1,1.6,4.1c1,1.2,2,2.3,3.2,3.4c1.1,1,2.2,2,3.3,3c0.3,0.3,1.3,1.3,0.1,1.3c-0.5,0-0.5-0.7-0.9-0.8 c-0.3,0.8-0.3,1.7,0,2.6c0.2,0.5,0.5,1,0.9,1.3c0.3,0.2,1.7,1.1,2,0.6c-0.2,0.6-0.2,1.4-0.2,2c0.1,0.6,1.1,3.5-0.5,2.2 c-0.4,0.7,0.1,1.4,0.6,1.9c0.6,0.6,0.9,0.9,1.4,1.6c0.4,0.7,1.2,1.2,2,1.4c0.6,0.2,1.3,0,1.8,0.4c0.7,0.6,1.7,0.8,2.6,0.8 c0.6,0,0.6-0.1,1,0.3c0.4,0.4,1,0.6,1.5,0.7c1.4,0.3,3.2,0.2,4.6-0.2C52.2,61.9,50.6,63.1,49,64.3z M22.7,61.6 c-0.4,0.8-0.7,1.8-1.2,2.6c-0.3,0.6-1,1.1-1.2,1.8c0.5-2.1,1.6-3.9,2.4-5.9C22.8,60.6,22.8,61.1,22.7,61.6z M53.7,60 c-0.1,0.1-0.3,0.1-0.4,0.2c0.6-0.6,1.2-1.6,1-2.5c-0.6,1.2-1.4,2.4-3,2.4c3-1.8,1.7-5.3,1.5-8.2c0.9,0.1,2,0.3,2.8-0.2 C54.9,54,57,59.4,53.7,60z M59.9,56.2c-0.4,0.1-0.8,0-1.1,0.1c0.2,0.4,0.7,0.5,1.1,0.4c-2.5,2.1-4.1-1.7-3.5-3.7 c0.1-0.4,0.3-1.1,0.6-1.4c0.5-0.5,2-0.9,2.8-1.1c0,1.3-1.2,2-1.3,3.3c-0.1,1.4,1.2,2.1,2.4,1.3C60.7,55.6,60.4,56,59.9,56.2 C59.8,56.2,60.2,56.1,59.9,56.2z M60.7,54.1c-0.8,0.5-2,0.8-1.3-0.7c0.4-0.9,1.3-1.7,1.1-2.7c0.2,0.5,0.4,1.1,0.6,1.6 c0.1,0.3,0.3,0.6,0.4,1C61.7,53.7,61,53.8,60.7,54.1z M84.4,52.7c-1.8,4.4-5,7.9-8.4,11.1c-0.8,0.7-1.6,1.3-2.5,2 c-0.7-0.6-1.3-1.1-1.9-1.6c-1.9-1.6-3.5-3.3-5.1-5.2c-2.6-3.1-4.8-6.8-5.2-10.9c-0.1-1.5,0.1-3.2,0.8-4.5c1.1-1.9,3.4-3,5.4-2 c0.3,0.4,0,0.9-0.4,1.1c-0.8,0.4-0.7-0.7-1.1-0.7c-0.8,0.8,0.9,2.4,1.5,2.7c0.8,0.3,1.7,0,2.3-0.4c0.9,0.3,1.8,0.6,2.7,0.8 c-0.1-1.6-0.3-3.3,0.8-4.6c1,0.8,0.2,3.4,0.1,4.5c0.8-0.4,1.4-1.2,2.3-1.3c-0.3,0.6-0.9,1-0.9,1.8c0.5,0.1,1.2-0.1,1.7-0.3 c0,1.1,3.3,0.1,3.8-0.1c1.1-0.4,3.1-1.4,2-2.8c-0.6,0.2-0.2,0.9-1.1,0.9c-0.6-0.1-1.1-0.4-0.9-1c0.3-0.9,2-0.7,2.6-0.4 c1.9,0.7,2.6,3.2,2.7,4.9C85.7,48.7,85.2,50.8,84.4,52.7C84,53.6,84.6,52.3,84.4,52.7z"/><path d="M77.7 54.4c-.4 0-1 .2-1.1.7-.1.5-.5.4-.7.8-.2.5.3.8.3 1.1.1.3-.7.8-.9.8-.3 0-1.2-.6-1-.9.1-.2.8-.1 1.1-.5.2-.3.6-1 .2-1.3C75.3 55 75.1 55 74.9 55c-.6 0-.3 0-.7-.4-.6-.8-1.9-.7-2 .5-1.5-.4-1.4 1.6-.4 1.7 1.5.3-.3 1.2-.6.9-.2-.2-.6-.4-.6-.7.3-.4.5-1 .1-1.3-.5-.4-.3-.3-.6-.7-.2-.2-1-.7-1.3-.4-.3.4.4 2.9.5 3.5.1.8 0 2 .9 2 .7 0 1.4 0 2.1 0 1.5 0 3 0 4.5 0 .6 0 .6-2 .6-2.5C77.6 57 78.3 54.4 77.7 54.4zM77.1 57c-.1.6-.2 1.2-.3 1.8-.1.7 0 .7-.7.7-1.2 0-2.3 0-3.5 0-.7 0-1.4 0-2.2 0-.5 0-.4-.9-.5-1.3-.2-1.1-.4-2.1-.6-3.2.3.1.4.2.4.5 0 .4.3.3.6.5.4.2-.5 1-.2 1.4.6.6 1.4 1.3 2.2.6.2-.2.8-.8.8-1.1.2-.7-1.1-.6-1.4-1.1-.3-.5.4-.3.6-.2 1 .4.4-.3.4-.5.1-.3.5-.8.8-.5.6.5.1.4.1.8 0 .7 1 0 1.3.1.3.1-.5.8-.7.8-.5 0-.7.3-.6.8 0 .3.5.8.8 1 .8.7 1.6.1 2.2-.6.3-.4-.6-1.1-.1-1.4.3-.2.6-.1.6-.5 0-.3.1-.4.4-.5C77.3 55.6 77.3 56.5 77.1 57zM71.9 52.4c.3-1.3.5-2.5.6-3.8.1-.7.7-2.1-.5-1.6-.5.2-.5.5-.7.9-.2.4-.8.2-.7.9.1.8.5.8-.3 1.4-.4.2-1.5-.4-1.3-.8.1-.2.7 0 .9-.2.2-.2.8-1.1.5-1.4-.3-.6-.9 0-1.2-.5-.2-.4-.6-.9-1.1-.9-.4 0-.6.3-.8.6-.1.2-.2.3-.2.5-.3-.1-.7-.1-1 .1-.4.3-.1.9.1 1.2.3.4 1 .3 1.1.5.3.6-2.4 1.5-1.7-.3.2-.6-.1-.6-.3-1-.4-.2-.2-.6-.6-.8-1.3-.9-1 .4-.9 1.2.2 1.2.3 2.5.6 3.7.2.7.4.5 1.1.5.9 0 1.8 0 2.7 0C69.4 52.4 70.9 52.6 71.9 52.4zM65 51.9c-.3-1.4-.3-3.1-.8-4.4.6.1.2.8.7.9.6.1.3.5.1.9-.2.5.3.9.7 1.2.8.6 3-.6 2.3-1.5-.1-.2-1.8-.4-1.4-1 .1-.4 1.1.3 1.3.1.4-.2-.5-1.1.5-1.2.3 0 .5.3.6.5.1.2-.2.1-.2.3 0 .7 1.1-.1 1.4.2-.3.9-1 .3-1.5.9-.7 1 1.4 2.1 2.3 1.5.2-.2.7-.5.7-.9 0-.3-.6-.9-.2-1.1.4-.2.3-.2.6-.4.2-.2-.1-.4.4-.6 0 .4-.6 4.4-.8 4.4C69.3 51.9 67.1 51.9 65 51.9zM83 46.8c-.5 0-1.1.3-1.2.8-.1.4-.6.3-.7.7-.2.8.7 1-.1 1.5-.4.3-1.8 0-1.5-.7.1-.2.7 0 .9-.2.2-.2.8-1.1.5-1.4-.3-.6-.9 0-1.2-.5-.2-.4-.6-.9-1.1-.9-.4 0-.6.3-.8.6-.1.2-.2.3-.2.5-.3-.1-.7-.1-1 .1-.4.3-.1.9.1 1.2.3.4 1 .3 1.1.5.3.6-1.1 1-1.5.7-.8-.6.4-1.1-.3-1.8-.3-.3-.5-.1-.6-.6-.1-.4-1.5-1-1.4-.4.2 1.3.4 2.6.7 3.9.2 1.3 0 1.4 1.2 1.4 2 0 4 0 6.1 0 .7 0 .7-2.3.8-2.9C83 49.1 83.5 46.8 83 46.8zM75.5 51.9c-.3-1.4-.3-3.1-.8-4.4.5.1.2.4.4.5 0 .4.7.2.7.6 0 .4-.6.8-.3 1.2.9 1.1 2 1.2 2.8-.1.6-1-.9-.9-1.3-1.7.1-.4.8 0 1.1 0 .6 0-.3-1.2.6-1.2.4 0 .7.5.4.7-.6.5 1.4.4 1.4.4-.3.9-1 .3-1.5.9-.7 1 1.4 2.1 2.3 1.5.2-.2.7-.5.7-.9 0-.3-.6-.9-.2-1.1.4-.2.3-.2.6-.4.2-.2-.1-.4.4-.6 0 .4-.6 4.4-.8 4.4C79.7 51.9 77.6 51.9 75.5 51.9z"/></g></g><g><path d="M138.1 59.4c-9.9 0-17.2-5.6-17.2-16C121 32 129.6 27 139.9 27c2.7 0 5 .3 7.6 1.1l-.7 7.1h-1.6c-.8-4-2.7-5.3-6.9-5.3-7.4-.1-11.2 5.8-11.2 12.8 0 8.2 4 13.7 12.6 13.7 1.2 0 2.5-.2 3.7-.4l0-11.1h5.6c-.2 1.5-.3 3.1-.3 4.6 0 2.6.1 5.4.3 8C145.4 58.8 141.8 59.4 138.1 59.4L138.1 59.4zM171.8 47.3c0 3.9-1.2 9.4-6.1 9.4-4.9 0-6.2-5.7-6.2-9.6 0-3.9 1.2-9.4 6.1-9.4S171.8 43.4 171.8 47.3L171.8 47.3zM172.9 27.7c0-1.6-.8-2.9-2.6-2.9-1.8 0-2.6 1.3-2.6 3 0 1.6.7 3 2.5 3C172.1 30.8 172.9 29.5 172.9 27.7L172.9 27.7zM164.2 27.7c0-1.6-.8-2.9-2.6-2.9-1.8 0-2.6 1.3-2.6 3 0 1.6.8 3 2.5 3C163.4 30.8 164.2 29.5 164.2 27.7L164.2 27.7zM177.3 46.6c0-6.8-4.2-11.6-11.1-11.6-7.6 0-12.1 5.4-12.1 12.7 0 6.7 4.2 11.6 11.1 11.6C172.7 59.3 177.3 53.9 177.3 46.6L177.3 46.6 177.3 46.6zM194.8 58.1c-1.2.7-3.9 1.2-5.3 1.2-4.3 0-6.4-2.5-6.4-6.7 0-4.6.2-9.2.3-13.8l-4.3-.7v-1.4l4.3-.9v-6.2l5-.9-.1 7.1h6.2v2.9h-6.2c0 4-.1 8-.1 12 0 2.9.5 5.8 3.9 5.8.7 0 2.2-.3 2.8-.5C194.9 56.8 194.9 57.2 194.8 58.1L194.8 58.1zM213.3 43.8L213.3 43.8l-10.1.3c.3-3.2 1.5-6.5 5.3-6.5C212.1 37.7 213.3 40.7 213.3 43.8L213.3 43.8zM218.7 44.3c0-6.2-3.3-9.2-9.9-9.2-7.2 0-11.2 5.3-11.2 12 0 7.4 4.5 12.1 12.1 12.1 2.7 0 5.7-.5 8.1-2l.4-2.9c-2 1.1-4.7 1.8-7 1.8-6.2 0-8.2-4.3-8.2-9.7l15.5.2C218.6 45.9 218.7 45.1 218.7 44.3L218.7 44.3zM240.6 47.4L240.6 47.4c0 3.9-1.4 9.4-6.2 9.4-4.6 0-4.2-4.8-4.2-8 0-3.3-.1-7.6 0-7.9 1.1-1 3.1-1.8 4.7-1.8C239.5 39 240.6 43.6 240.6 47.4L240.6 47.4zM246.1 46c0-5.9-2.8-11-9.3-11-3.1 0-4.8 1.1-6.7 3.6l.1-14.5c-.6 0-1.2-.1-1.8-.1-2.3 0-4.7.2-6.9.7v1.5c2.5.1 3.4.5 3.8 3 .4 2.6.3 5.8.3 8 0 6.7-.3 13.5-.5 20.2 1.5.9 4.1 1.9 8.5 1.9C241.4 59.3 246.1 53.7 246.1 46L246.1 46zM267.3 47.3c0 3.9-1.2 9.4-6.1 9.4-4.9 0-6.2-5.7-6.2-9.6 0-3.9 1.2-9.4 6.1-9.4C266 37.7 267.3 43.4 267.3 47.3L267.3 47.3zM272.9 46.6c0-6.7-4.3-11.5-11.2-11.5-7.6 0-12.2 5.4-12.2 12.7 0 6.7 4.3 11.6 11.2 11.6C268.2 59.3 272.9 53.9 272.9 46.6L272.9 46.6zM292.5 41.2h-1.3c-.6-1.3-1.3-1.8-2.7-1.8-1.9 0-3.2 1.3-4.2 2.7v16.8h-5.5c.4-5 .6-10.1.6-15.1 0-3.3.4-6-3.8-6.2v-1.4c2.3-.7 5-.8 7.3-.8.4 0 .8 0 1.2 0l.1 4c1.3-3.1 4-4.3 7.2-4.3.5 0 1 0 1.5.2L292.5 41.2 292.5 41.2zM308.7 43.1c0 2.4-1.1 5.2-3.9 5.2-3 0-4-3.7-4-6.2 0-2.4 1.1-5.4 3.9-5.4C307.7 36.8 308.7 40.8 308.7 43.1L308.7 43.1zM316.9 61.7c0-2.3-.9-4.1-2.4-5.1-3.9-2.8-13.1.2-13.1-3.7 0-1 .4-1.9 1.1-2.5 5.5.7 11.5-1.7 11.5-8.1 0-1.1-.2-2.1-.6-3.1h3v-3H311c-1.9-1.3-3.7-1.7-5.9-1.7-5.2 0-9.6 2.7-9.6 8.3 0 3.6 1.7 5.9 5.1 7-1.6 1.2-2.2 2.7-2.2 4.3 0 1.6.6 3.1 2.1 3.8-3.1.4-5.7 1.5-5.7 5 0 5.5 6.5 6.9 10.8 6.9C310.8 69.8 316.9 67.9 316.9 61.7L316.9 61.7 316.9 61.7zM311.7 62.8c0 3.3-3 4.6-5.9 4.6-2.7 0-5.6-1.3-5.6-4.4 0-3.3 2.9-4 5.7-4C308.4 59.2 311.7 59.5 311.7 62.8L311.7 62.8zM326 59.3c-2.6 0-4.9-.4-7.3-1.7l.6-4.6c1.8 1.9 4 3.6 6.8 3.6 2 0 3.9-1.1 3.9-3.3 0-2.6-2.2-3.5-4.7-4.4-3-1.1-6.5-2.3-6.5-6.8 0-5.5 4.9-7.2 9.5-7.2 2.1 0 4.2.3 6.2 1.2l-.6 5.5h-1.6c-.4-2.4-1.6-4-4.3-4-1.9 0-3.8 1.2-3.8 3.3 0 2.5 2.3 3.3 4.9 4.2 3.1 1 6.5 2.2 6.5 6.8C335.7 57.4 330.8 59.3 326 59.3L326 59.3zM130.2 105.8c-3.2 0-6.3-.6-9-2.4l1-5c2.2 2.9 4.4 4.5 8.1 4.5 3.2 0 5.6-1.8 5.6-5.1 0-4-3.3-5-6.7-6.2-3.8-1.3-7.8-2.7-7.8-8.6 0-6.6 6-9.5 11.8-9.5 2.4 0 5.1.1 7.1 1.4l-.7 6.6h-1.5c-.1-.4-.1-.7-.2-1-.6-2.7-1.9-4.1-5.1-4.1-3 0-5.5 1.7-5.5 4.9 0 4.1 3.6 4.8 7.2 6.1 3.6 1.2 7.3 2.9 7.3 8.8C141.6 102.9 136.2 105.8 130.2 105.8L130.2 105.8zM158.9 104.5c-1.2.7-3.9 1.2-5.3 1.2-4.3 0-6.4-2.5-6.4-6.7 0-4.6.2-9.2.3-13.8l-4.3-.7v-1.4l4.3-.9v-6.2l5-.9-.1 7.1h6.2v2.9h-6.2c0 4-.1 8-.1 12 0 2.9.5 5.8 3.9 5.8.7 0 2.2-.3 2.8-.5C159 103.3 159 103.7 158.9 104.5L158.9 104.5zM175 95.8c0 3.4-.3 6.8-4.5 6.8-2.2 0-3.6-1.5-3.6-3.8 0-1.9 1-2.6 2.5-3.3 1.7-.9 3.7-1.4 5.7-1.6V95.8L175 95.8zM183.6 105.3v-1.6c-3.9-.1-3.7-2.9-3.7-6.1 0-2.4.2-4.7.2-7.1 0-6.3-2.2-9-8.7-9-3.1 0-6.1.6-8.5 2.8l.7 3.7h1.6c.8-2.3 2.7-3.4 5.1-3.4 4.5 0 4.7 3.1 4.6 7 0 0-7.1.9-10.1 2.3-2.2 1-3.4 2.8-3.4 5.4 0 4.3 3.3 6.5 7.3 6.5 3 0 5.2-1 6.8-3.5l.1 3H183.6L183.6 105.3zM201.9 90.9c0 3.2 0 6.3 0 9.5-1.1 1.5-2.9 2.1-4.8 2.1-4.4 0-6-4.8-6-8.5 0-4.1 1.5-9.8 6.5-9.8C202 84.2 201.9 87.5 201.9 90.9L201.9 90.9zM210.6 105.4v-1.5c-.9-.1-1.9-.4-2.6-.9-1.1-.8-1.2-2.3-1.2-3.8-.3-9.1 0-19.6.1-28.6-1.9-.2-6.1.1-8.9.8v1.4c4.1.2 4 2.6 4 5.7 0 1.5 0 2.9 0 4-1.4-.6-2.9-.7-4.3-.7-7.4 0-12.1 5-12.1 12.6 0 6.2 3.5 11.5 10.1 11.5 2.6 0 5.1-.9 6.8-2.9 0 0 .1.9.1 2.5H210.6L210.6 105.4z"/></g></svg>